<svg width="521" height="300" viewBox="0 0 521 300" fill="none" xmlns="http://www.w3.org/2000/svg">
<path d="M10.3174 245.55H520.713V244.747H10.3174V245.55Z" fill="#8CAADB"/>
<path d="M273.544 246.999H85.5173V21.6305C85.5173 10.0972 94.3962 0.27858 105.93 0.27858L273.544 0.748444V246.999Z" fill="#8CAADB"/>
<path d="M273.544 246.999H88.9893L118.635 2.61818L273.544 23.1349V244.747V245.55V246.999Z" fill="#819BCE"/>
<path d="M351.749 20.0784C351.749 8.9892 342.759 -0.000549316 331.671 -0.000549316H123.85V0.135162L104.035 0.03479C116.143 0.03479 123.802 8.58279 123.802 18.909L123.85 18.8512V254.036C123.85 269.561 136.436 282.146 151.961 282.146H304.363L352.575 281.477L351.749 20.0784Z" fill="#DAE8F7"/>
<path d="M198.546 49.6778C198.546 33.56 185.481 20.4942 169.362 20.4942C153.244 20.4942 140.178 33.56 140.178 49.6778C140.178 65.7956 153.244 78.8613 169.362 78.8613C185.481 78.8613 198.546 65.7956 198.546 49.6778Z" fill="#C2D4E9"/>
<path d="M230.689 54.6965L226.423 65.923C223.517 73.1731 216.218 80.6521 209.473 78.2057L187.926 70.3894C185.485 69.2095 182.947 68.3703 180.554 68.1446C180.402 68.0908 180.314 68.0626 180.314 68.0626L174.414 65.1721L161.533 67.6073L156.966 71.0102C145.5 73.2061 121.145 80.9188 121.145 80.9188C126.179 84.4808 130.524 90.9695 130.524 90.9695C130.524 90.9695 129.578 92.518 128.261 94.6849C131.707 99.026 135.527 103.492 141.618 106.161C143.011 106.772 145.852 107.443 147.587 107.972L143.216 153.287L190.685 154.053C190.685 154.053 197.922 121.81 199.306 101.191L200.153 101.512C211.231 105.399 223.429 101.451 231.812 91.9694C238.652 84.2318 242.028 59.4118 242.028 59.4118L230.689 54.6965Z" fill="#F2588D"/>
<path d="M173.75 53.9239L175.679 67.9438C175.679 67.9438 157.155 82.8745 158.244 70.8681L160.589 54.4163L173.75 53.9239Z" fill="#F47379"/>
<path d="M172.52 39.4145L174.143 54.9017C174.143 54.9017 158.727 74.0065 160.082 55.3346L163.358 38.9703L172.52 39.4145Z" fill="#141A32"/>
<path d="M156.419 46.1638L159.095 45.4104L159.718 48.599L157.042 49.3523C156.218 49.5844 155.411 49.0592 155.239 48.1781C155.067 47.2987 155.595 46.3967 156.419 46.1638Z" fill="#F47379"/>
<path d="M156.419 46.1644L156.542 46.6013L158.744 45.9813L159.193 48.2759L156.92 48.916C156.827 48.9425 156.737 48.9546 156.651 48.9546C156.202 48.9522 155.795 48.6373 155.684 48.092C155.668 48.0085 155.66 47.9257 155.66 47.8422C155.657 47.2711 156.043 46.7354 156.542 46.6013L156.419 46.1644L156.296 45.7283C155.358 45.9989 154.756 46.888 154.753 47.8422C154.753 47.9827 154.766 48.1249 154.794 48.2663V48.2655C154.971 49.2003 155.751 49.8637 156.651 49.8613C156.821 49.8613 156.994 49.838 157.165 49.7898L160.244 48.9224L159.446 44.8408L156.296 45.7283L156.419 46.1644Z" fill="#F47379"/>
<path d="M156.658 46.9715L157.764 46.6607L158.021 47.9763L156.916 48.2879C156.576 48.3835 156.242 48.1675 156.172 47.8036C156.101 47.4398 156.319 47.0679 156.658 46.9715Z" fill="#C8503A"/>
<path d="M177.552 45.3135L174.826 45.6846L174.601 42.4133L177.327 42.0423C178.166 41.9282 178.897 42.5675 178.959 43.4711C179.022 44.3746 178.391 45.1995 177.552 45.3135Z" fill="#F47379"/>
<path d="M177.552 45.3143L177.491 44.8645L175.245 45.1705L175.083 42.806L177.388 42.492L177.52 42.4832C178.021 42.4848 178.458 42.8807 178.506 43.5032L178.509 43.5956C178.512 44.2373 178.038 44.7995 177.491 44.8645L177.552 45.3143L177.613 45.7641C178.668 45.6123 179.414 44.6614 179.417 43.5956L179.412 43.4405C179.346 42.3956 178.53 41.5748 177.52 41.5756C177.435 41.5756 177.351 41.582 177.266 41.5933L174.119 42.0214L174.407 46.2002L177.613 45.7641L177.552 45.3143Z" fill="#F47379"/>
<path d="M177.44 43.0884L176.313 43.2209L176.385 44.5742L177.512 44.4417C177.859 44.4007 178.124 44.065 178.104 43.6907C178.084 43.3181 177.787 43.0482 177.44 43.0884Z" fill="#C8503A"/>
<path d="M167.205 57.401L167.147 57.4147C160.718 57.6861 157.985 53.3579 157.879 47.8796L157.871 47.4611C157.765 41.9828 160.737 33.2243 165.813 32.8252L165.798 32.7674C170.874 32.3682 176.146 40.5395 176.251 46.0162L176.26 46.4347C176.365 51.913 174.423 56.9376 167.205 57.401Z" fill="#F47379"/>
<path d="M167.206 57.4013L167.099 56.9604L167.041 56.9741L167.147 57.415L167.128 56.962C166.943 56.9701 166.761 56.9733 166.582 56.9733C163.673 56.9676 161.686 55.9709 160.36 54.359C159.037 52.7446 158.382 50.4605 158.333 47.8711L158.324 47.4526C158.323 47.3611 158.322 47.2687 158.322 47.1747C158.319 44.5091 159.049 41.0627 160.38 38.2838C161.043 36.8935 161.856 35.6711 162.78 34.7892C163.707 33.9058 164.729 33.366 165.848 33.2777L166.379 33.2359L166.239 32.6601L165.798 32.7677L165.835 33.2199C165.942 33.211 166.051 33.207 166.159 33.207C167.276 33.2062 168.435 33.656 169.553 34.4447C171.23 35.6245 172.789 37.5593 173.921 39.6837C175.056 41.8064 175.764 44.1219 175.799 46.0254L175.807 46.4447C175.809 46.5804 175.811 46.7153 175.811 46.8511C175.811 49.4533 175.31 51.882 174.005 53.6835C172.699 55.4818 170.599 56.7219 167.177 56.9484L167.137 56.9508L167.099 56.9604L167.206 57.4013L167.235 57.8535C170.848 57.6286 173.277 56.2504 174.741 54.2152C176.207 52.1832 176.717 49.5625 176.718 46.8511C176.718 46.7097 176.717 46.5684 176.713 46.427L176.705 46.0077C176.646 43.1999 175.331 39.8331 173.396 37.116C172.427 35.7595 171.3 34.5676 170.076 33.7034C168.853 32.8408 167.523 32.3011 166.159 32.2994C166.027 32.2994 165.895 32.3051 165.763 32.3155L165.232 32.3573L165.372 32.9332L165.813 32.8255L165.778 32.3733C164.403 32.481 163.184 33.1476 162.154 34.1331C160.606 35.6149 159.437 37.8204 158.637 40.18C157.839 42.5405 157.415 45.056 157.414 47.1747C157.414 47.2743 157.415 47.3723 157.418 47.4703L157.426 47.8888C157.479 50.6147 158.163 53.1028 159.658 54.9341C161.152 56.7677 163.465 57.8873 166.582 57.8808C166.773 57.8808 166.969 57.8768 167.166 57.8688L167.21 57.8664L167.312 57.8423L167.206 57.4013L167.235 57.8535L167.206 57.4013Z" fill="#F47379"/>
<path d="M167.678 53.8269L167.671 53.8277C165.436 54.0277 163.583 52.6262 163.531 50.6978L163.524 50.4343L171.622 49.7083L171.629 49.9725C171.681 51.9001 169.912 53.6261 167.678 53.8269Z" fill="white"/>
<path d="M165.246 45.6734C165.247 46.0733 165.011 46.3986 164.718 46.3994C164.426 46.4002 164.186 46.0773 164.185 45.6774C164.183 45.2774 164.419 44.9521 164.712 44.9513C165.006 44.9505 165.244 45.2734 165.246 45.6734Z" fill="#141A32"/>
<path d="M170.015 45.1634C170.013 45.5642 169.775 45.8895 169.482 45.8887C169.188 45.8871 168.952 45.561 168.954 45.1594C168.955 44.7578 169.194 44.4334 169.487 44.4342C169.78 44.4358 170.016 44.7618 170.015 45.1634Z" fill="#141A32"/>
<path d="M168.288 48.6275L166.406 48.7271C166.174 48.74 166.004 48.4541 166.086 48.1914L166.819 45.8422C166.913 45.5434 167.247 45.5113 167.388 45.7868L168.537 48.0364C168.666 48.2894 168.529 48.6147 168.288 48.6275Z" fill="#C8503A"/>
<path d="M162.221 43.6415C161.699 44.0921 162.383 42.2432 163.13 41.9605C163.878 41.677 164.681 41.971 164.926 42.6159C164.926 42.6159 163.474 42.5565 162.221 43.6415Z" fill="#141A32"/>
<path d="M170.946 42.2136C171.556 42.534 170.47 40.8884 169.678 40.7832C168.885 40.6771 168.169 41.1454 168.079 41.8297C168.079 41.8297 169.479 41.4425 170.946 42.2136Z" fill="#141A32"/>
<path d="M174.846 35.7378C174.785 35.5948 174.719 35.4599 174.654 35.3282C175.306 35.031 175.696 34.8326 175.696 34.8326C175.696 34.8326 174.93 23.9201 173.686 23.7523C173.197 23.6864 159.821 26.8332 156.447 35.7081C156.355 35.949 156.373 36.1795 156.471 36.3972C156.387 36.5747 156.309 36.7554 156.242 36.9393C155.739 38.3047 155.67 39.8042 155.871 41.2193C155.966 41.8924 157.188 45.7435 157.816 45.8046C158.099 45.8327 159.632 40.8515 160.552 38.1135C162.085 38.3111 163.886 38.3247 165.696 38.0822C167.753 37.8075 169.809 37.2051 171.522 36.5931C172.813 38.3336 175.538 41.8129 175.994 41.8297C176.431 41.8474 175.252 36.6807 174.846 35.7378Z" fill="#141A32"/>
<path d="M213.439 28.3659L213.961 29.9755C214.034 30.1995 214.243 30.3513 214.478 30.3513H216.17C216.696 30.3513 216.915 31.0244 216.49 31.3344L215.12 32.3287C214.93 32.4669 214.851 32.7118 214.923 32.9359L215.446 34.5454C215.609 35.0458 215.036 35.4618 214.61 35.1526L213.241 34.1575C213.051 34.0194 212.793 34.0194 212.602 34.1575L211.234 35.1526C210.807 35.4618 210.235 35.0458 210.398 34.5454L210.92 32.9359C210.993 32.7118 210.913 32.4669 210.723 32.3287L209.354 31.3344C208.928 31.0244 209.147 30.3513 209.673 30.3513H211.366C211.601 30.3513 211.809 30.1995 211.882 29.9755L212.405 28.3659C212.568 27.8656 213.276 27.8656 213.439 28.3659Z" fill="#3A568A"/>
<path d="M224.521 28.3659L225.043 29.9755C225.116 30.1995 225.325 30.3513 225.56 30.3513H227.251C227.778 30.3513 227.997 31.0244 227.571 31.3344L226.202 32.3287C226.011 32.4669 225.932 32.7118 226.005 32.9359L226.528 34.5454C226.691 35.0458 226.117 35.4618 225.692 35.1526L224.322 34.1575C224.133 34.0194 223.874 34.0194 223.684 34.1575L222.315 35.1526C221.889 35.4618 221.316 35.0458 221.479 34.5454L222.002 32.9359C222.075 32.7118 221.995 32.4669 221.804 32.3287L220.436 31.3344C220.01 31.0244 220.228 30.3513 220.755 30.3513H222.447C222.682 30.3513 222.891 30.1995 222.964 29.9755L223.486 28.3659C223.649 27.8656 224.358 27.8656 224.521 28.3659Z" fill="#3A568A"/>
<path d="M235.602 28.3659L236.125 29.9755C236.197 30.1995 236.406 30.3513 236.641 30.3513H238.333C238.859 30.3513 239.079 31.0244 238.653 31.3344L237.283 32.3287C237.093 32.4669 237.014 32.7118 237.087 32.9359L237.609 34.5454C237.772 35.0458 237.199 35.4618 236.773 35.1526L235.404 34.1575C235.214 34.0194 234.956 34.0194 234.766 34.1575L233.396 35.1526C232.971 35.4618 232.398 35.0458 232.56 34.5454L233.083 32.9359C233.156 32.7118 233.077 32.4669 232.886 32.3287L231.517 31.3344C231.091 31.0244 231.31 30.3513 231.836 30.3513H233.528C233.764 30.3513 233.973 30.1995 234.045 29.9755L234.568 28.3659C234.73 27.8656 235.439 27.8656 235.602 28.3659Z" fill="#3A568A"/>
<path d="M246.683 28.3659L247.205 29.9755C247.279 30.1995 247.487 30.3513 247.723 30.3513H249.414C249.94 30.3513 250.159 31.0244 249.734 31.3344L248.365 32.3287C248.174 32.4669 248.095 32.7118 248.168 32.9359L248.691 34.5454C248.853 35.0458 248.28 35.4618 247.854 35.1526L246.485 34.1575C246.295 34.0194 246.037 34.0194 245.847 34.1575L244.478 35.1526C244.051 35.4618 243.479 35.0458 243.642 34.5454L244.165 32.9359C244.237 32.7118 244.157 32.4669 243.967 32.3287L242.599 31.3344C242.173 31.0244 242.391 30.3513 242.917 30.3513H244.61C244.845 30.3513 245.054 30.1995 245.126 29.9755L245.65 28.3659C245.812 27.8656 246.52 27.8656 246.683 28.3659Z" fill="#3A568A"/>
<path d="M257.764 28.3659L258.288 29.9755C258.36 30.1995 258.569 30.3513 258.804 30.3513H260.496C261.023 30.3513 261.241 31.0244 260.815 31.3344L259.447 32.3287C259.256 32.4669 259.177 32.7118 259.249 32.9359L259.772 34.5454C259.934 35.0458 259.362 35.4618 258.936 35.1526L257.567 34.1575C257.377 34.0194 257.118 34.0194 256.928 34.1575L255.559 35.1526C255.134 35.4618 254.561 35.0458 254.723 34.5454L255.246 32.9359C255.319 32.7118 255.24 32.4669 255.049 32.3287L253.68 31.3344C253.254 31.0244 253.473 30.3513 254 30.3513H255.691C255.926 30.3513 256.135 30.1995 256.208 29.9755L256.731 28.3659C256.894 27.8656 257.602 27.8656 257.764 28.3659Z" fill="#C2D4E9"/>
<path d="M267.063 46.4707H207.628C206.064 46.4707 204.797 45.2033 204.797 43.6396V42.3593C204.797 40.7964 206.064 39.529 207.628 39.529H267.063C268.627 39.529 269.894 40.7964 269.894 42.3593V43.6396C269.894 45.2033 268.627 46.4707 267.063 46.4707Z" fill="white"/>
<path d="M329.1 75.5306V74.3259H308.405V54.8349H327.896V75.5306H329.1V74.3259V75.5306H330.305V52.4254H305.995V76.7354H330.305V75.5306H329.1Z" fill="white"/>
<path d="M135.195 90.3564H327.494V89.5533H135.195V90.3564Z" fill="white"/>
<path d="M205.17 56.4375H291.706V54.028H205.17V56.4375Z" fill="white"/>
<path d="M205.17 66.0527H291.706V63.6433H205.17V66.0527Z" fill="white"/>
<path d="M205.17 75.667H291.706V73.2575H205.17V75.667Z" fill="white"/>
<path d="M198.546 133.006C198.546 116.888 185.481 103.823 169.362 103.823C153.244 103.823 140.178 116.888 140.178 133.006C140.178 149.125 153.244 162.19 169.362 162.19C185.481 162.19 198.546 149.125 198.546 133.006Z" fill="#C2D4E9"/>
<path d="M159.355 118.034C159.917 115.27 161.582 110.09 166.05 108.955C170.373 107.857 174.177 108.135 178.383 111.056C186.513 116.702 181.545 145.832 181.545 145.832C181.545 145.832 178.48 152.471 156.026 143.8C156.026 143.8 158.61 121.689 159.355 118.034Z" fill="#141A32"/>
<path d="M163.022 128.502C163.022 128.502 160.877 145.216 160.665 146.559C160.665 146.559 167.909 155.197 175.319 147.768C175.319 147.768 174.067 143.715 171.786 133.28L163.022 128.502Z" fill="#F8A478"/>
<path d="M163.022 128.502L162.543 128.44C162.543 128.443 162.409 129.485 162.205 131.073C161.898 133.454 161.433 137.059 161.025 140.193C160.617 143.323 160.264 145.999 160.188 146.483C160.166 146.621 160.205 146.762 160.295 146.868C160.312 146.889 161.22 147.971 162.737 149.063C164.254 150.152 166.39 151.264 168.873 151.267C171.007 151.271 173.365 150.419 175.662 148.109C175.788 147.983 175.834 147.796 175.781 147.626C175.781 147.625 175.763 147.566 175.724 147.437C175.458 146.532 174.251 142.299 172.259 133.177C172.229 133.041 172.141 132.922 172.018 132.856L163.254 128.078C163.113 128.001 162.945 127.999 162.803 128.071C162.66 128.144 162.564 128.282 162.543 128.44L163.022 128.502L162.791 128.926L171.555 133.705L171.786 133.28L171.314 133.383C173.597 143.829 174.852 147.895 174.858 147.911L175.32 147.768L174.977 147.427C172.818 149.586 170.75 150.296 168.873 150.3C166.69 150.303 164.723 149.302 163.302 148.278C162.592 147.768 162.021 147.256 161.63 146.873C161.434 146.681 161.284 146.522 161.182 146.413L161.07 146.287L161.035 146.248L160.665 146.558L161.143 146.633C161.251 145.94 161.839 141.439 162.402 137.088C162.965 132.742 163.502 128.564 163.502 128.564L163.022 128.502L162.791 128.926L163.022 128.502Z" fill="#F8A478"/>
<path d="M168.878 151.654C168.878 151.654 168.173 155.198 175.584 147.769C175.584 147.769 174.975 144.413 174.479 142.522L168.878 151.654Z" fill="#141A32"/>
<path d="M172.355 133.429C171.753 135.614 168.017 137.437 165.952 136.999C163.436 136.466 162.32 131.982 162.558 130.131C162.757 128.575 167.065 127.738 169.101 128.299C171.137 128.86 172.958 131.243 172.355 133.429Z" fill="#141A32"/>
<path d="M159.796 120.171L162.696 120.677L162.132 123.911L159.231 123.405C158.338 123.249 157.74 122.398 157.896 121.506V121.505C158.052 120.613 158.902 120.015 159.796 120.171Z" fill="#F8A478"/>
<path d="M159.796 120.171L159.715 120.635L162.153 121.06L161.749 123.368L159.312 122.943C158.742 122.844 158.341 122.347 158.341 121.79L158.359 121.587L158.366 121.547V121.505H157.896L158.359 121.586C158.457 121.018 158.954 120.617 159.511 120.617L159.715 120.635L159.796 120.171L159.877 119.708C159.754 119.687 159.632 119.676 159.511 119.676C158.502 119.676 157.613 120.399 157.432 121.424L157.425 121.464V121.506H157.896L157.432 121.425C157.411 121.548 157.401 121.67 157.401 121.79C157.401 122.799 158.123 123.688 159.15 123.869L162.514 124.456L163.241 120.295L159.876 119.708L159.796 120.171Z" fill="#F8A478"/>
<path d="M159.53 121.011L160.728 121.22L160.495 122.556L159.298 122.346C158.929 122.282 158.681 121.93 158.746 121.561C158.811 121.193 159.162 120.947 159.53 121.011Z" fill="#E86654"/>
<path d="M159.53 121.011L159.451 121.47L160.19 121.598L160.117 122.017L159.377 121.887C159.274 121.871 159.201 121.778 159.201 121.679L159.204 121.642C159.221 121.539 159.313 121.467 159.413 121.466L159.45 121.47L159.53 121.011L159.611 120.553L159.413 120.536C158.866 120.536 158.386 120.926 158.288 121.482L158.27 121.679C158.27 122.226 158.661 122.707 159.217 122.805L160.873 123.094L161.266 120.841L159.61 120.553L159.53 121.011Z" fill="#E86654"/>
<path d="M178.702 126.957L175.892 126.074L176.878 122.941L179.687 123.826C180.552 124.098 181.032 125.019 180.76 125.884C180.488 126.748 179.566 127.229 178.702 126.957Z" fill="#F8A478"/>
<path d="M178.701 126.958L178.842 126.51L176.482 125.767L177.185 123.531L179.546 124.274C180.046 124.431 180.366 124.894 180.366 125.392C180.366 125.508 180.349 125.626 180.312 125.744C180.155 126.244 179.691 126.563 179.195 126.564C179.078 126.563 178.96 126.547 178.842 126.51L178.701 126.958L178.56 127.407C178.77 127.473 178.984 127.504 179.195 127.504C180.093 127.505 180.924 126.927 181.209 126.026C181.275 125.816 181.306 125.602 181.306 125.392C181.307 124.493 180.729 123.662 179.827 123.377L176.571 122.352L175.302 126.381L178.56 127.407L178.701 126.958Z" fill="#F8A478"/>
<path d="M179.451 124.717L178.298 124.333L177.869 125.618L179.022 126.003C179.377 126.121 179.761 125.93 179.879 125.575C179.998 125.219 179.806 124.836 179.451 124.717Z" fill="#E86654"/>
<path d="M179.451 124.717L179.598 124.276L178.003 123.744L177.28 125.913L178.875 126.443C178.994 126.484 179.117 126.503 179.237 126.503C179.716 126.503 180.16 126.2 180.321 125.721C180.36 125.603 180.38 125.48 180.38 125.36C180.38 124.88 180.077 124.436 179.598 124.276L179.451 124.717L179.303 125.158C179.393 125.187 179.449 125.272 179.45 125.36L179.438 125.427C179.409 125.516 179.325 125.571 179.237 125.572L179.169 125.561L178.458 125.324L178.592 124.921L179.304 125.158L179.451 124.717Z" fill="#E86654"/>
<path d="M172.815 113.677L172.816 113.677C178.029 115.331 180.079 120.759 178.425 125.973L178.299 126.371C176.646 131.584 171.044 134.931 166.69 133.474L166.655 133.452C163.257 132.135 158.721 125.75 160.374 120.536L160.501 120.139C162.154 114.926 167.602 112.023 172.815 113.677Z" fill="#F8A478"/>
<path d="M172.814 113.676L172.553 114.067L172.555 114.068L172.61 114.105L172.674 114.125C174.591 114.735 176.039 115.868 177.022 117.319C178.004 118.771 178.515 120.547 178.515 122.436C178.515 123.545 178.339 124.692 177.977 125.83L177.851 126.229C177.188 128.319 175.854 130.106 174.221 131.364C172.589 132.624 170.664 133.347 168.847 133.346C168.157 133.346 167.482 133.242 166.838 133.027L166.69 133.473L166.935 133.073L166.901 133.051L166.865 133.028L166.825 133.013C165.515 132.513 163.891 131.082 162.641 129.217C161.385 127.354 160.491 125.066 160.493 122.879C160.493 122.129 160.597 121.391 160.823 120.678L160.949 120.281C162.226 116.254 165.869 113.683 169.84 113.682C170.773 113.682 171.725 113.824 172.672 114.124L172.814 113.676L172.553 114.067L172.814 113.676L172.957 113.228C171.918 112.899 170.868 112.741 169.84 112.741C165.461 112.741 161.452 115.581 160.052 119.996L159.926 120.394C159.668 121.207 159.553 122.043 159.553 122.879C159.555 125.321 160.527 127.757 161.861 129.742C163.202 131.726 164.894 133.266 166.485 133.89L166.655 133.452L166.408 133.852L166.443 133.873L166.489 133.901L166.54 133.919C167.286 134.169 168.063 134.286 168.847 134.286C170.913 134.285 173.019 133.477 174.795 132.109C176.57 130.739 178.021 128.804 178.747 126.513L178.874 126.115C179.263 124.887 179.456 123.645 179.456 122.436C179.456 120.379 178.898 118.414 177.801 116.793C176.707 115.171 175.07 113.897 172.958 113.229L172.816 113.677L173.076 113.286L173.076 113.285L173.02 113.248L172.957 113.228L172.814 113.676Z" fill="#F8A478"/>
<path d="M167.712 129.672L168.094 129.764C169.443 130.086 170.798 129.253 171.12 127.904L165.851 126.647C165.529 127.995 166.362 129.351 167.712 129.672Z" fill="white"/>
<path d="M170.828 124.474C170.736 124.856 170.896 125.221 171.186 125.291C171.476 125.361 171.785 125.108 171.877 124.726C171.969 124.343 171.808 123.978 171.518 123.908C171.228 123.838 170.92 124.092 170.828 124.474Z" fill="#141A32"/>
<path d="M166.738 123.485C166.617 123.86 166.75 124.237 167.033 124.328C167.317 124.419 167.645 124.19 167.765 123.815C167.885 123.441 167.752 123.065 167.469 122.973C167.185 122.882 166.858 123.111 166.738 123.485Z" fill="#141A32"/>
<path d="M168.025 126.115L169.397 126.488C169.567 126.535 169.738 126.345 169.722 126.133L169.567 124.238C169.547 123.997 169.306 123.919 169.156 124.105L167.939 125.628C167.801 125.8 167.849 126.067 168.025 126.115Z" fill="#EE6A7A"/>
<path d="M165.881 121.6C165.441 121.74 166.351 120.785 166.885 120.808C167.42 120.831 167.836 121.226 167.815 121.687C167.815 121.687 166.938 121.265 165.881 121.6Z" fill="#141A32"/>
<path d="M173.462 123.377C173.789 123.702 173.418 122.435 172.932 122.212C172.447 121.988 171.896 122.146 171.704 122.565C171.704 122.565 172.675 122.594 173.462 123.377Z" fill="#141A32"/>
<path d="M166.746 113.098C162.801 119.636 179.676 123.6 179.676 123.6C179.676 123.6 182.359 110.907 168.31 110.539C159.234 110.3 167.134 112.457 166.746 113.098Z" fill="#141A32"/>
<path d="M167.947 112.933C167.947 112.933 163.868 118.725 162.833 119.714C161.651 120.842 159.802 119.535 159.802 119.535C159.802 119.535 160.391 110.488 167.947 112.933Z" fill="#141A32"/>
<path d="M183.288 131.391C183.288 133.282 181.755 134.815 179.864 134.815C177.971 134.815 176.438 133.282 176.438 131.391C176.438 129.499 177.971 127.965 179.864 127.965C181.755 127.965 183.288 129.499 183.288 131.391Z" fill="#F9C53D"/>
<path d="M180.023 127.514C180.023 127.893 179.715 128.2 179.337 128.2C178.958 128.2 178.651 127.893 178.651 127.514C178.651 127.135 178.958 126.828 179.337 126.828C179.715 126.828 180.023 127.135 180.023 127.514Z" fill="#F9C53D"/>
<path d="M160.344 128.863C159.432 130.521 157.35 131.126 155.693 130.214C154.035 129.303 153.43 127.219 154.342 125.562C155.253 123.905 157.336 123.301 158.993 124.211C160.651 125.123 161.255 127.205 160.344 128.863Z" fill="#F9C53D"/>
<path d="M159.35 123.893C159.167 124.224 158.75 124.346 158.419 124.163C158.086 123.98 157.966 123.564 158.148 123.232C158.33 122.899 158.747 122.779 159.08 122.961C159.411 123.143 159.533 123.561 159.35 123.893Z" fill="#F9C53D"/>
<path d="M198.039 165.499L190.672 147.371C188.129 143.413 185.798 142.274 182.634 142.712C181.623 142.853 180.776 143.143 180.047 143.535L174.957 144.539C167.597 149.528 161.054 142.242 161.054 142.242C155.422 137.794 143.38 146.284 143.38 146.284L144.751 154.098C144.751 154.098 149.939 173.513 149.973 174.169C150.294 180.261 149.903 190.854 149.987 190.694C150.071 190.531 182.738 194.895 182.99 194.411C183.24 193.926 183.285 190.261 183.878 176.922C183.957 175.169 183.989 173.433 183.986 171.728L198.039 165.499Z" fill="#F9C53D"/>
<path d="M166.47 191.986C160.819 187.427 155.156 182.62 151.107 176.515C149.218 173.666 147.661 170.58 146.698 167.291C146.512 166.657 145.253 162.848 145.728 162.353C146.623 161.417 149.154 163.197 150.133 163.655C156.911 166.824 162.589 170.916 166.978 177.049C171.335 183.138 175.184 189.859 176.821 197.216C176.931 197.712 177.691 197.501 177.581 197.007C175.748 188.764 171.203 180.995 165.992 174.421C160.627 167.651 153.214 164.077 145.445 160.723C145.196 160.616 144.829 160.734 144.851 161.065C145.788 174.77 155.825 184.407 165.912 192.543C166.303 192.86 166.865 192.304 166.47 191.986Z" fill="white"/>
<path d="M141.132 136.563C151.603 153.815 163.914 172.298 184.689 177.567C185.044 177.657 185.275 177.292 185.134 176.987C180.728 167.459 175.138 158.545 168.38 150.506C161.954 142.862 154.002 134.165 144.74 129.999C144.281 129.793 143.879 130.472 144.342 130.681C153.148 134.641 160.74 142.822 166.958 150.048C170.27 153.896 173.33 157.963 176.104 162.216C178.655 166.126 181.784 170.535 183.319 174.972C183.751 176.219 184.25 176.127 183.053 176.317C182.244 176.446 180.846 175.628 180.038 175.328C177.49 174.379 175.044 173.175 172.706 171.792C168.513 169.312 164.686 166.241 161.232 162.813C153.385 155.025 147.516 145.56 141.813 136.164C141.549 135.731 140.867 136.127 141.132 136.563Z" fill="white"/>
<path d="M177.54 144.094C180.297 156.515 190.539 166.692 203.93 165.077C204.428 165.018 204.433 164.227 203.93 164.289C190.87 165.863 180.985 155.978 178.302 143.884C178.192 143.389 177.431 143.599 177.54 144.094Z" fill="white"/>
<path d="M213.439 111.695L213.961 113.305C214.034 113.528 214.243 113.68 214.478 113.68H216.17C216.696 113.68 216.915 114.354 216.49 114.664L215.12 115.658C214.93 115.796 214.851 116.041 214.923 116.265L215.446 117.875C215.609 118.375 215.036 118.791 214.61 118.481L213.241 117.487C213.051 117.349 212.793 117.349 212.602 117.487L211.234 118.481C210.807 118.791 210.235 118.375 210.398 117.875L210.92 116.265C210.993 116.041 210.913 115.796 210.723 115.658L209.354 114.664C208.928 114.354 209.147 113.68 209.673 113.68H211.366C211.601 113.68 211.809 113.528 211.882 113.305L212.405 111.695C212.568 111.195 213.276 111.195 213.439 111.695Z" fill="#3A568A"/>
<path d="M224.521 111.695L225.043 113.305C225.116 113.528 225.325 113.68 225.56 113.68H227.251C227.778 113.68 227.997 114.354 227.571 114.664L226.202 115.658C226.011 115.796 225.932 116.041 226.005 116.265L226.528 117.875C226.691 118.375 226.117 118.791 225.692 118.481L224.322 117.487C224.133 117.349 223.874 117.349 223.684 117.487L222.315 118.481C221.889 118.791 221.316 118.375 221.479 117.875L222.002 116.265C222.075 116.041 221.995 115.796 221.804 115.658L220.436 114.664C220.01 114.354 220.228 113.68 220.755 113.68H222.447C222.682 113.68 222.891 113.528 222.964 113.305L223.486 111.695C223.649 111.195 224.358 111.195 224.521 111.695Z" fill="#3A568A"/>
<path d="M235.602 111.695L236.125 113.305C236.197 113.528 236.406 113.68 236.641 113.68H238.333C238.859 113.68 239.079 114.354 238.653 114.664L237.283 115.658C237.093 115.796 237.014 116.041 237.087 116.265L237.609 117.875C237.772 118.375 237.199 118.791 236.773 118.481L235.404 117.487C235.214 117.349 234.956 117.349 234.766 117.487L233.396 118.481C232.971 118.791 232.398 118.375 232.56 117.875L233.083 116.265C233.156 116.041 233.077 115.796 232.886 115.658L231.517 114.664C231.091 114.354 231.31 113.68 231.836 113.68H233.528C233.764 113.68 233.973 113.528 234.045 113.305L234.568 111.695C234.73 111.195 235.439 111.195 235.602 111.695Z" fill="#3A568A"/>
<path d="M246.683 111.695L247.205 113.305C247.279 113.528 247.487 113.68 247.723 113.68H249.414C249.94 113.68 250.159 114.354 249.734 114.664L248.365 115.658C248.174 115.796 248.095 116.041 248.168 116.265L248.691 117.875C248.853 118.375 248.28 118.791 247.854 118.481L246.485 117.487C246.295 117.349 246.037 117.349 245.847 117.487L244.478 118.481C244.051 118.791 243.479 118.375 243.642 117.875L244.165 116.265C244.237 116.041 244.157 115.796 243.967 115.658L242.599 114.664C242.173 114.354 242.391 113.68 242.917 113.68H244.61C244.845 113.68 245.054 113.528 245.126 113.305L245.65 111.695C245.812 111.195 246.52 111.195 246.683 111.695Z" fill="#3A568A"/>
<path d="M257.764 111.695L258.288 113.305C258.36 113.528 258.569 113.68 258.804 113.68H260.496C261.023 113.68 261.241 114.354 260.815 114.664L259.447 115.658C259.256 115.796 259.177 116.041 259.249 116.265L259.772 117.875C259.934 118.375 259.362 118.791 258.936 118.481L257.567 117.487C257.377 117.349 257.118 117.349 256.928 117.487L255.559 118.481C255.134 118.791 254.561 118.375 254.723 117.875L255.246 116.265C255.319 116.041 255.24 115.796 255.049 115.658L253.68 114.664C253.254 114.354 253.473 113.68 254 113.68H255.691C255.926 113.68 256.135 113.528 256.208 113.305L256.731 111.695C256.894 111.195 257.602 111.195 257.764 111.695Z" fill="#3A568A"/>
<path d="M267.063 129.801H207.628C206.064 129.801 204.797 128.533 204.797 126.97V125.689C204.797 124.126 206.064 122.859 207.628 122.859H267.063C268.627 122.859 269.894 124.126 269.894 125.689V126.97C269.894 128.533 268.627 129.801 267.063 129.801Z" fill="white"/>
<path d="M329.1 158.861V157.656H308.405V138.164H327.896V158.861H329.1V157.656V158.861H330.305V135.755H305.995V160.065H330.305V158.861H329.1Z" fill="white"/>
<path d="M135.195 173.686H327.494V172.882H135.195V173.686Z" fill="white"/>
<path d="M205.17 139.768H291.706V137.358H205.17V139.768Z" fill="white"/>
<path d="M205.17 149.382H291.706V146.972H205.17V149.382Z" fill="white"/>
<path d="M205.17 158.998H291.706V156.589H205.17V158.998Z" fill="white"/>
<path d="M198.546 216.871C198.546 200.754 185.481 187.687 169.362 187.687C153.244 187.687 140.178 200.754 140.178 216.871C140.178 232.99 153.244 246.056 169.362 246.056C185.481 246.056 198.546 232.99 198.546 216.871Z" fill="#FCFCFC"/>
<path d="M165.184 195.535C165.184 195.535 153.553 200.077 149.975 212.676C146.397 225.274 141.412 236.702 132.192 237.382C122.973 238.062 113.284 244.571 112.731 246.577C112.177 248.583 142.45 292.069 167.685 281.348L170.93 258.428L171.362 276.257C171.362 276.257 172.159 279.597 181.079 273.733C189.999 267.87 192.745 187.787 165.184 195.535Z" fill="#993C61"/>
<path d="M171.601 195.346C165.67 194.024 159.476 195.351 154.761 199.267C149.108 203.961 147.756 211.267 146.62 218.138C146.008 221.836 145.427 225.602 144.034 229.104C141.713 234.933 137.156 237.162 131.056 237.297C123.291 237.469 116.31 236.833 110.846 243.321C110.172 244.121 111.324 245.284 112.003 244.477C118.195 237.126 126.221 239.914 134.479 238.681C140.564 237.772 144.089 234.028 146.039 228.372C148.339 221.696 148.131 214.403 150.738 207.818C154 199.577 162.463 194.983 171.166 196.924C172.192 197.153 172.631 195.575 171.601 195.346Z" fill="#993C61"/>
<path d="M174.727 214.342C174.727 214.342 176.748 231.78 177.081 233.108C177.081 233.108 171.79 239.046 164.115 234.77C164.115 234.77 164.955 229.596 166.309 218.924L174.727 214.342Z" fill="#F8A49A"/>
<path d="M174.727 214.342L174.244 214.398C174.244 214.398 174.749 218.759 175.296 223.285C175.57 225.549 175.853 227.854 176.09 229.678C176.208 230.591 176.315 231.383 176.403 231.991C176.492 232.603 176.556 233.011 176.609 233.227L177.081 233.109L176.718 232.785L176.714 232.79C176.649 232.86 175.931 233.63 174.706 234.373C173.479 235.116 171.755 235.832 169.656 235.831C168.095 235.83 166.318 235.439 164.352 234.345L164.115 234.77L164.596 234.848C164.596 234.843 165.438 229.663 166.792 218.985L166.309 218.924L166.542 219.351L174.96 214.769L174.727 214.342L174.244 214.398L174.727 214.342L174.494 213.915L166.077 218.497C165.939 218.571 165.846 218.708 165.826 218.863C165.15 224.196 164.602 228.155 164.223 230.779C164.033 232.092 163.886 233.071 163.787 233.721C163.687 234.371 163.635 234.691 163.635 234.692C163.602 234.893 163.7 235.096 163.878 235.195C165.976 236.365 167.929 236.806 169.656 236.805C172.055 236.805 174 235.962 175.339 235.126C176.678 234.289 177.423 233.456 177.444 233.432C177.552 233.313 177.592 233.146 177.553 232.99C177.523 232.875 177.452 232.447 177.367 231.852C177.063 229.749 176.523 225.352 176.061 221.488C175.829 219.555 175.616 217.755 175.462 216.437C175.307 215.12 175.211 214.288 175.211 214.286C175.192 214.126 175.094 213.984 174.951 213.91C174.809 213.836 174.636 213.838 174.494 213.915L174.727 214.342Z" fill="#F8A49A"/>
<path d="M167.399 203.166H167.398C164.04 203.904 162.853 209.037 164.08 214.619L164.174 215.046C165.398 220.616 168.884 223.461 171.741 223.639C174.036 223.782 176.57 218.369 175.343 212.788L175.625 211.93C174.398 206.349 170.757 202.427 167.399 203.166Z" fill="#141A32"/>
<path d="M160.572 212.917L163.38 211.963L162.317 208.832L159.508 209.785C158.644 210.078 158.181 211.017 158.475 211.882C158.768 212.747 159.707 213.21 160.572 212.917Z" fill="#F8A49A"/>
<path d="M160.572 212.917L160.723 213.365L163.98 212.26L162.612 208.231L159.356 209.337C158.471 209.639 157.912 210.464 157.912 211.351C157.912 211.578 157.949 211.81 158.026 212.035C158.328 212.92 159.153 213.479 160.04 213.479C160.267 213.479 160.498 213.442 160.723 213.365L160.572 212.917L160.42 212.468C160.293 212.512 160.165 212.532 160.04 212.532C159.549 212.531 159.089 212.222 158.923 211.731C158.879 211.604 158.859 211.477 158.859 211.351C158.86 210.86 159.169 210.4 159.661 210.234L162.021 209.433L162.779 211.667L160.419 212.468L160.572 212.917Z" fill="#F8A49A"/>
<path d="M179.813 205.136L176.961 205.948L177.867 209.129L180.719 208.317C181.597 208.067 182.106 207.152 181.857 206.274C181.607 205.396 180.692 204.887 179.813 205.136Z" fill="#F8A49A"/>
<path d="M179.814 205.136L179.684 204.68L176.376 205.621L177.541 209.713L180.849 208.772C181.784 208.504 182.394 207.654 182.394 206.726C182.394 206.533 182.368 206.337 182.312 206.144C182.046 205.209 181.195 204.598 180.268 204.598C180.075 204.598 179.878 204.625 179.684 204.68L179.814 205.136L179.944 205.591C180.052 205.56 180.161 205.545 180.268 205.545C180.78 205.546 181.255 205.884 181.402 206.403C181.432 206.511 181.447 206.62 181.447 206.726C181.447 207.239 181.108 207.714 180.59 207.861L178.192 208.543L177.546 206.273L179.944 205.591L179.814 205.136Z" fill="#F8A49A"/>
<path d="M180.168 205.95L178.99 206.284L179.364 207.598L180.541 207.263C180.904 207.16 181.115 206.782 181.011 206.419C180.908 206.057 180.531 205.846 180.168 205.95Z" fill="#F46E8A"/>
<path d="M180.168 205.949L180.039 205.495L178.861 205.83C178.742 205.864 178.639 205.946 178.578 206.054C178.518 206.163 178.503 206.294 178.537 206.413L178.91 207.726C178.982 207.976 179.243 208.122 179.493 208.05L180.671 207.715C181.178 207.571 181.509 207.11 181.509 206.606C181.509 206.501 181.495 206.394 181.465 206.29C181.32 205.783 180.86 205.451 180.355 205.451C180.251 205.451 180.143 205.466 180.038 205.495H180.039L180.168 205.949L180.298 206.402L180.355 206.394C180.445 206.394 180.532 206.455 180.557 206.548L180.565 206.606C180.565 206.697 180.505 206.783 180.413 206.808L179.688 207.014L179.573 206.608L180.297 206.403L180.298 206.402L180.168 205.949Z" fill="#F46E8A"/>
<path d="M159.766 210.678L160.919 210.266L161.38 211.551L160.227 211.963C159.872 212.091 159.482 211.906 159.354 211.551C159.227 211.196 159.412 210.806 159.766 210.678Z" fill="#F46E8A"/>
<path d="M159.766 210.678L159.926 211.122L160.634 210.868L160.776 211.265L160.068 211.519L160.067 211.52L159.996 211.532C159.911 211.532 159.828 211.478 159.798 211.392L159.785 211.321C159.786 211.235 159.839 211.153 159.925 211.122L159.766 210.678L159.608 210.234C159.136 210.403 158.841 210.847 158.842 211.321C158.842 211.451 158.864 211.583 158.911 211.711C159.08 212.181 159.522 212.476 159.996 212.476C160.126 212.476 160.258 212.453 160.387 212.407H160.386L161.538 211.994C161.657 211.952 161.752 211.866 161.806 211.752C161.86 211.638 161.866 211.51 161.824 211.391L161.363 210.106C161.321 209.989 161.232 209.892 161.12 209.839C161.008 209.786 160.877 209.779 160.759 209.821L159.607 210.235L159.766 210.678Z" fill="#F46E8A"/>
<path d="M167.432 199.789L167.431 199.79C162.071 201.055 159.571 206.227 160.801 211.438L160.895 211.836C162.126 217.047 168.696 221.179 172.151 220.243C175.693 219.281 180.569 212.55 179.34 207.339L179.245 206.941C178.015 201.73 172.792 198.524 167.432 199.789Z" fill="#F8A49A"/>
<path d="M167.432 199.79L167.102 199.46L167.101 199.46L167.432 199.791L167.324 199.336C164.992 199.885 163.154 201.154 161.914 202.842C160.673 204.528 160.026 206.624 160.026 208.831C160.026 209.724 160.132 210.635 160.347 211.546L160.441 211.945C161.034 214.44 162.748 216.642 164.767 218.24C166.791 219.833 169.118 220.837 171.077 220.844C171.494 220.844 171.896 220.796 172.273 220.694C173.158 220.453 174.061 219.914 174.939 219.177C176.252 218.07 177.506 216.503 178.444 214.736C179.379 212.967 179.999 210.995 180.001 209.069C180.001 208.449 179.936 207.833 179.794 207.233L179.7 206.834C178.601 202.177 174.455 199.045 169.782 199.047C168.974 199.047 168.15 199.14 167.325 199.335L167.196 199.366L167.102 199.46L167.432 199.79L167.539 200.244C168.295 200.066 169.046 199.981 169.782 199.981C174.038 199.983 177.793 202.822 178.791 207.05L178.885 207.448C179.009 207.971 179.067 208.514 179.067 209.069C179.071 211.366 178.055 213.876 176.645 215.892C175.941 216.901 175.141 217.786 174.337 218.463C173.534 219.141 172.724 219.606 172.029 219.793C171.743 219.87 171.423 219.91 171.077 219.91C169.443 219.917 167.235 219.006 165.345 217.507C163.449 216.012 161.869 213.945 161.35 211.73L161.255 211.331C161.057 210.489 160.96 209.65 160.96 208.831C160.96 206.805 161.552 204.907 162.666 203.395C163.781 201.883 165.412 200.748 167.538 200.245L167.668 200.215L167.762 200.12L167.432 199.79L167.539 200.244L167.432 199.79Z" fill="#F8A49A"/>
<path d="M171.136 215.832L171.53 215.728C172.92 215.359 173.748 213.932 173.38 212.541L167.949 213.983C168.319 215.373 169.745 216.201 171.136 215.832Z" fill="white"/>
<path d="M171.426 209.553C171.53 209.947 171.857 210.203 172.156 210.123C172.454 210.045 172.613 209.661 172.508 209.268C172.405 208.874 172.078 208.618 171.779 208.698C171.48 208.776 171.322 209.159 171.426 209.553Z" fill="#141A32"/>
<path d="M167.206 210.661C167.279 211.062 167.586 211.342 167.89 211.285C168.194 211.228 168.38 210.858 168.306 210.458C168.232 210.057 167.925 209.778 167.622 209.834C167.317 209.89 167.131 210.261 167.206 210.661Z" fill="#141A32"/>
<path d="M169.674 212.43L171.111 212.096C171.287 212.055 171.352 211.798 171.231 211.613L170.159 209.958C170.022 209.748 169.764 209.796 169.72 210.039L169.355 212.028C169.314 212.252 169.489 212.473 169.674 212.43Z" fill="#F46E8A"/>
<path d="M165.496 209.36C165.163 209.704 165.525 208.384 166.024 208.143C166.524 207.902 167.097 208.057 167.305 208.488C167.305 208.488 166.297 208.535 165.496 209.36Z" fill="#141A32"/>
<path d="M173.292 207.257C173.751 207.395 172.79 206.419 172.237 206.454C171.683 206.488 171.258 206.903 171.288 207.381C171.288 207.381 172.19 206.929 173.292 207.257Z" fill="#141A32"/>
<path d="M177.258 232.124C175.493 234.957 169.819 237.28 164.293 228.932C164.293 228.932 155.349 223.201 148.882 233.817C143.045 243.398 142.979 243.696 142.979 243.696L155.09 254.071L155.93 276.578L190.656 277.711C190.656 277.711 186.959 261.641 187.609 259.04C187.718 258.605 198.275 241.299 198.275 241.299C198.275 241.299 184.427 220.616 177.258 232.124Z" fill="#F2588D"/>
<path d="M159.855 208.884C159.855 208.884 165.992 206.971 167.432 199.789C167.432 199.789 173.966 205.956 179.118 204.844C179.118 204.844 173.966 195.359 166.881 198.286C159.797 201.214 159.914 205.547 159.855 208.884Z" fill="#993C61"/>
<path d="M213.439 195.561L213.961 197.17C214.034 197.393 214.243 197.545 214.478 197.545H216.17C216.696 197.545 216.915 198.219 216.49 198.528L215.12 199.523C214.93 199.662 214.851 199.907 214.923 200.131L215.446 201.74C215.609 202.24 215.036 202.657 214.61 202.346L213.241 201.352C213.051 201.214 212.793 201.214 212.602 201.352L211.234 202.346C210.807 202.657 210.235 202.24 210.398 201.74L210.92 200.131C210.993 199.907 210.913 199.662 210.723 199.523L209.354 198.528C208.928 198.219 209.147 197.545 209.673 197.545H211.366C211.601 197.545 211.809 197.393 211.882 197.17L212.405 195.561C212.568 195.06 213.276 195.06 213.439 195.561Z" fill="#3A568A"/>
<path d="M224.521 195.561L225.043 197.17C225.116 197.393 225.325 197.545 225.56 197.545H227.251C227.778 197.545 227.997 198.219 227.571 198.528L226.202 199.523C226.011 199.662 225.932 199.907 226.005 200.131L226.528 201.74C226.691 202.24 226.117 202.657 225.692 202.346L224.322 201.352C224.133 201.214 223.874 201.214 223.684 201.352L222.315 202.346C221.889 202.657 221.316 202.24 221.479 201.74L222.002 200.131C222.075 199.907 221.995 199.662 221.804 199.523L220.436 198.528C220.01 198.219 220.228 197.545 220.755 197.545H222.447C222.682 197.545 222.891 197.393 222.964 197.17L223.486 195.561C223.649 195.06 224.358 195.06 224.521 195.561Z" fill="#3A568A"/>
<path d="M235.602 195.561L236.125 197.17C236.197 197.393 236.406 197.545 236.641 197.545H238.333C238.859 197.545 239.079 198.219 238.653 198.528L237.283 199.523C237.093 199.662 237.014 199.907 237.087 200.131L237.609 201.74C237.772 202.24 237.199 202.657 236.773 202.346L235.404 201.352C235.214 201.214 234.956 201.214 234.766 201.352L233.396 202.346C232.971 202.657 232.398 202.24 232.56 201.74L233.083 200.131C233.156 199.907 233.077 199.662 232.886 199.523L231.517 198.528C231.091 198.219 231.31 197.545 231.836 197.545H233.528C233.764 197.545 233.973 197.393 234.045 197.17L234.568 195.561C234.73 195.06 235.439 195.06 235.602 195.561Z" fill="#3A568A"/>
<path d="M246.683 195.561L247.205 197.17C247.279 197.393 247.487 197.545 247.723 197.545H249.414C249.94 197.545 250.159 198.219 249.734 198.528L248.365 199.523C248.174 199.662 248.095 199.907 248.168 200.131L248.691 201.74C248.853 202.24 248.28 202.657 247.854 202.346L246.485 201.352C246.295 201.214 246.037 201.214 245.847 201.352L244.478 202.346C244.051 202.657 243.479 202.24 243.642 201.74L244.165 200.131C244.237 199.907 244.157 199.662 243.967 199.523L242.599 198.528C242.173 198.219 242.391 197.545 242.917 197.545H244.61C244.845 197.545 245.054 197.393 245.126 197.17L245.65 195.561C245.812 195.06 246.52 195.06 246.683 195.561Z" fill="#C2D4E9"/>
<path d="M257.764 195.561L258.288 197.17C258.36 197.393 258.569 197.545 258.804 197.545H260.496C261.023 197.545 261.241 198.219 260.815 198.528L259.447 199.523C259.256 199.662 259.177 199.907 259.249 200.131L259.772 201.74C259.934 202.24 259.362 202.657 258.936 202.346L257.567 201.352C257.377 201.214 257.118 201.214 256.928 201.352L255.559 202.346C255.134 202.657 254.561 202.24 254.723 201.74L255.246 200.131C255.319 199.907 255.24 199.662 255.049 199.523L253.68 198.528C253.254 198.219 253.473 197.545 254 197.545H255.691C255.926 197.545 256.135 197.393 256.208 197.17L256.731 195.561C256.894 195.06 257.602 195.06 257.764 195.561Z" fill="#C2D4E9"/>
<path d="M267.063 213.665H207.628C206.064 213.665 204.797 212.398 204.797 210.835V209.554C204.797 207.992 206.064 206.724 207.628 206.724H267.063C268.627 206.724 269.894 207.992 269.894 209.554V210.835C269.894 212.398 268.627 213.665 267.063 213.665Z" fill="white"/>
<path d="M329.1 242.725V241.52H308.405V222.028H327.896V242.725H329.1V241.52V242.725H330.305V219.619H305.995V243.93H330.305V242.725H329.1Z" fill="white"/>
<path d="M135.195 257.549H327.494V256.746H135.195V257.549Z" fill="white"/>
<path d="M205.17 223.632H291.706V221.222H205.17V223.632Z" fill="white"/>
<path d="M205.17 233.246H291.706V230.837H205.17V233.246Z" fill="white"/>
<path d="M205.17 242.861H291.706V240.452H205.17V242.861Z" fill="white"/>
<path d="M148.282 282.253C155.805 282.253 166.71 272.148 166.71 264.625H374.234C374.234 264.625 373.433 282.253 353.401 282.253H148.282Z" fill="#C6D8F1"/>
<path d="M417.631 136.817L402.784 72.87C402.575 71.2002 405.597 67.2021 407.061 66.3636C411.071 64.0665 416.022 63.7356 420.547 64.6761C435.296 67.7402 447.832 126.706 445.369 125.285C445.369 125.285 423.235 136.845 416.073 132.141" fill="#0E1422"/>
<path d="M418.809 78.414C418.803 78.6365 418.979 78.8204 419.201 78.8196C420.131 78.8156 422.278 78.6172 422.581 81.05C422.888 83.51 420.544 84.8939 419.134 84.971C418.726 84.9935 417.787 85.077 417.511 85.3774C416.663 86.2994 416.265 88.3161 415.611 90.8292C414.169 96.3799 418.53 98.9146 418.53 98.9146C418.53 98.9146 403.991 106.064 404.126 98.8977L405.207 85.6473C404.072 84.5124 399.664 84.0249 402.436 74.6279C405.003 65.9233 411.39 66.5433 413.013 66.8309C414.383 67.0734 419.139 67.3722 418.809 78.414Z" fill="#F29498"/>
<path d="M408.52 65.9755C408.52 65.9755 417.444 77.7739 418.998 78.7529C418.998 78.7529 425.082 64.3531 408.52 65.9755Z" fill="#0E1422"/>
<path d="M421.525 81.7548C421.525 81.7548 420.062 78.6715 418.208 82.8037L421.525 81.7548Z" fill="#F25C5E"/>
<path d="M410.726 78.424C409.52 78.3975 408.52 79.3533 408.493 80.5596C408.466 81.766 409.421 82.7659 410.627 82.7924C411.834 82.8197 412.834 81.864 412.861 80.6584C412.888 79.4521 411.932 78.4521 410.726 78.424Z" fill="#F5797D"/>
<path d="M401.624 79.2402C402.624 79.0595 403.393 78.1953 403.417 77.1408C403.435 76.3264 403.006 75.6076 402.355 75.2164C402.355 75.2164 401.422 77.6331 401.624 79.2402Z" fill="#F5797D"/>
<path d="M403.462 78.1147L406.793 79.7732C406.793 79.7732 405.163 80.9587 404.283 80.3097C403.403 79.6616 403.462 78.1147 403.462 78.1147Z" fill="white"/>
<path d="M406.012 75.6969L405.486 78.0742L404.328 77.5626C404.115 77.4686 404.08 77.1803 404.265 77.0382L406.012 75.6969Z" fill="#F25C5E"/>
<path d="M410.285 74.805C410.575 75.2082 410.407 73.7995 409.933 73.475C409.457 73.1513 408.845 73.2212 408.567 73.6316C408.567 73.6316 409.591 73.8348 410.285 74.805Z" fill="#040606"/>
<path d="M404.005 72.4282C403.527 72.5624 404.539 71.5672 405.111 71.6122C405.685 71.6572 406.119 72.0941 406.08 72.5889C406.08 72.5889 405.153 72.1054 404.005 72.4282Z" fill="#040606"/>
<path d="M408.365 76.5526C408.204 76.9509 407.918 77.2112 407.725 77.1324C407.531 77.0545 407.506 76.669 407.666 76.2707C407.827 75.8731 408.113 75.6129 408.307 75.6908C408.5 75.7695 408.526 76.155 408.365 76.5526Z" fill="#040606"/>
<path d="M405.28 75.0849C405.127 75.4656 404.853 75.7138 404.668 75.6391C404.484 75.5644 404.459 75.1965 404.613 74.8158C404.766 74.4359 405.04 74.1878 405.225 74.2624C405.408 74.3371 405.433 74.7058 405.28 75.0849Z" fill="#040606"/>
<path d="M405.207 85.6475C405.207 85.6475 409.357 86.4402 411.454 86.3053C413.549 86.1703 403.058 98.2185 405.207 85.6475Z" fill="#040606"/>
<path d="M477.834 295.942C477.834 294.564 458.43 293.448 434.493 293.448C410.556 293.448 391.152 294.564 391.152 295.942C391.152 297.318 410.556 298.435 434.493 298.435C458.43 298.435 477.834 297.318 477.834 295.942Z" fill="#7A95CA"/>
<path d="M407.485 277.493L405.975 288.215C405.975 288.215 403.553 295.325 401.305 292.573C399.056 289.821 396.83 288.366 396.83 288.366L396.092 277.218L407.485 277.493Z" fill="#F29198"/>
<path d="M401.599 277.894L401.21 292.477C401.21 292.477 408.327 293.545 405.682 288.783L407.239 278.671L401.599 277.894Z" fill="#F5797D"/>
<path d="M443.322 276.669L446.659 287.365C446.659 287.365 449.198 289.591 450.114 289.533C451.781 289.429 452.656 286.552 452.656 286.552L452.931 276.669H443.322Z" fill="#F29198"/>
<path d="M448.129 273.809L450.462 291.504C450.462 291.504 455.245 292.766 452.601 288.004L453.185 274.392L448.129 273.809Z" fill="#F5797D"/>
<path d="M396.089 288.309L387.109 295.587C386.65 295.928 386.978 296.503 387.634 296.509L400.889 296.615C401.21 296.618 401.495 296.474 401.602 296.255L402.601 294.205C402.89 293.612 403.465 293.565 403.413 294.192L403.902 296.171C403.876 296.483 407.045 296.397 407.073 296.113C407.247 294.354 406.88 288.601 406.565 286.998C406.519 286.768 406.284 286.585 405.971 286.54L405.969 286.539C405.688 286.498 405.4 286.576 405.229 286.743C404.334 287.609 401.473 290.213 399.948 289.685C398.926 289.332 397.603 288.699 397.19 288.335C396.91 288.089 396.396 288.08 396.089 288.309Z" fill="#F24F96"/>
<path d="M452.78 286.181L457.878 294.722C458.423 295.553 458.12 296.544 457.136 297.129C455.542 298.079 454.239 299.972 453.236 299.999C451.422 300.05 448.605 298.141 446.962 297.424C445.86 296.945 444.997 296.24 445.134 295.318L446.401 286.751C446.417 286.645 446.603 286.607 446.696 286.69L448.648 288.459C449.288 289.04 451.024 288.961 451.454 288.267C451.763 287.773 452.484 286.174 452.484 286.174C452.55 286.089 452.722 286.093 452.78 286.181Z" fill="#F24F96"/>
<path d="M425.734 135.774C429.851 143.052 432.027 148.383 434.392 157.635C437.136 168.367 466.827 259.136 468.121 278.655C464.74 279.47 442.282 279.351 440.146 279.234C433.348 259.753 416.15 196.485 413.235 184.214C412.787 182.328 409.873 182.741 410.1 184.667C411.754 198.681 420.668 257.71 425.11 279.268C423.337 280.171 397.591 279.97 395.543 279.714C393.315 255.676 381.493 164.679 399.34 135.182C407.501 134.057 417.459 135.528 425.734 135.774Z" fill="#2D4777"/>
<path d="M400.258 138.319C400.253 138.331 392.977 156.337 392.977 181.756C392.978 207.168 401.3 271.478 401.3 271.482L401.616 271.442C401.615 271.438 401.486 270.437 401.258 268.629C399.665 255.974 393.294 203.948 393.295 181.756C393.295 169.077 395.11 158.245 396.925 150.583C397.833 146.752 398.741 143.715 399.421 141.635C399.761 140.596 400.044 139.795 400.242 139.255C400.44 138.716 400.552 138.439 400.552 138.438L400.258 138.319Z" fill="white"/>
<path d="M450.896 271.428L421.865 137.517L421.554 137.584L450.585 271.495L450.896 271.428Z" fill="white"/>
<path d="M416.462 138.261C416.462 138.267 416.519 143.655 417.744 149.057C418.357 151.758 419.261 154.463 420.609 156.508C421.953 158.551 423.766 159.944 426.161 159.943C426.537 159.943 426.928 159.909 427.332 159.837L427.278 159.524C426.89 159.592 426.518 159.625 426.161 159.625C423.9 159.624 422.192 158.327 420.874 156.333C418.902 153.346 417.87 148.82 417.342 145.048C417.077 143.161 416.936 141.463 416.862 140.236C416.788 139.01 416.781 138.26 416.78 138.257L416.462 138.261Z" fill="white"/>
<path d="M427.642 150.018H432.194V139.279H427.642V150.018Z" fill="#B7B9B8"/>
<path d="M424.076 157.39L419.66 154.065C418.455 151.311 417.748 147.956 417.342 145.048C417.077 143.162 416.936 141.463 416.862 140.237C416.835 139.797 416.817 139.42 416.805 139.115L421.903 139.192L425.632 156.393L424.076 157.39ZM425.918 156.21L422.229 139.197L427.641 139.28C429.493 142.843 430.908 146.141 432.194 150.018C432.292 150.515 432.382 151.005 432.463 151.489L429.003 154.233L425.918 156.21ZM419.155 153.684L400.189 139.402C400.207 139.352 400.225 139.303 400.242 139.255C400.297 139.105 400.346 138.975 400.387 138.866L416.486 139.111C416.555 140.837 416.81 144.943 417.743 149.057C418.103 150.643 418.563 152.229 419.155 153.684ZM399.923 139.202L399.458 138.852L400.049 138.861C400.012 138.961 399.969 139.074 399.923 139.202Z" fill="#21375B"/>
<path d="M400.189 139.402L399.923 139.202C399.969 139.075 400.012 138.961 400.049 138.861L400.387 138.866C400.346 138.975 400.297 139.105 400.243 139.255C400.225 139.303 400.207 139.352 400.189 139.402Z" fill="#BFC0BE"/>
<path d="M425.632 156.393L421.903 139.192L422.229 139.197L425.918 156.209L425.632 156.393Z" fill="#BFC0BE"/>
<path d="M419.661 154.063L419.156 153.683C418.564 152.228 418.104 150.642 417.744 149.056C416.81 144.942 416.556 140.835 416.487 139.109L416.806 139.114C416.818 139.419 416.835 139.796 416.863 140.235C416.937 141.462 417.077 143.161 417.342 145.047C417.749 147.955 418.455 151.31 419.661 154.063Z" fill="#BFC0BE"/>
<path d="M394.933 160.906C395.34 160.976 395.729 161.011 396.103 161.011C397.862 161.013 399.253 160.236 400.318 158.995C403.507 155.271 403.971 147.408 403.977 142.861C403.977 140.809 403.878 139.435 403.878 139.432L403.561 139.455C403.561 139.456 403.586 139.795 403.61 140.391C403.635 140.988 403.659 141.84 403.659 142.861C403.66 145.875 403.443 150.364 402.376 154.079C401.844 155.937 401.099 157.6 400.077 158.788C399.053 159.975 397.767 160.691 396.103 160.693C395.748 160.693 395.377 160.661 394.989 160.591L394.933 160.906Z" fill="white"/>
<path d="M415.076 96.0646C415.076 96.0646 417.206 95.4501 416.853 95.9031C416.501 96.3561 415.745 96.8597 414.989 97.3633L415.076 96.0646Z" fill="#C4183F"/>
<path d="M423.553 271.439L394.547 271.443V271.761L423.553 271.757" fill="white"/>
<path d="M467.184 271.188L437.216 271.443L437.218 271.761L467.187 271.506" fill="white"/>
<path d="M435.723 179.397C435.723 179.219 435.901 177.319 435.901 177.319L435.041 180.05L435.723 179.397Z" fill="#D24549"/>
<path d="M430.337 182.098L429.736 182.565C429.736 182.565 430.359 183.7 430.627 183.61C430.627 183.61 430.181 183.076 430.337 182.098Z" fill="#D24549"/>
<path d="M367.123 115.68C367.123 115.68 389.085 146.135 394.232 142.505C394.232 142.505 400.136 138.337 397.167 121.323C397.162 119.67 397.153 118.524 397.212 118.265C397.212 118.265 398.488 101.466 401.249 97.9869C401.552 97.6046 402.468 96.8954 402.346 96.8641C393.912 94.7558 390.686 115.958 388.361 125.766C388.265 126.172 372.167 110.494 372.167 110.494C372.167 110.494 363.734 99.3458 363.146 99.9827C362.294 100.906 365.561 105.878 365.561 105.878C365.561 105.878 365.348 106.447 364.709 106.731C364.069 107.014 363.714 107.44 363.501 108.293C363.288 109.145 362.436 109.643 362.294 110.14C362.152 110.637 365.324 114.378 367.123 115.68Z" fill="#F29498"/>
<path d="M371.882 110.425C371.882 110.425 370.177 105.595 369.467 105.737C368.756 105.879 365.632 107.229 365.703 108.436C365.774 109.644 368.473 108.649 368.473 108.649C368.473 108.649 367.976 111.348 369.325 111.703C370.674 112.058 371.882 110.425 371.882 110.425Z" fill="#F29498"/>
<path d="M367.691 108.435C367.691 108.435 367.763 109.643 366.769 109.855C366.769 109.855 366.555 111.134 365.276 110.85C365.276 110.85 365.632 111.419 364.851 111.56C364.851 111.56 368.189 115.182 367.691 108.435Z" fill="#F5797D"/>
<path d="M368.34 106.11C367.755 106.535 367.149 106.904 366.54 107.265C366.254 107.458 365.887 107.6 365.663 107.789C365.546 107.882 365.46 107.994 365.445 108.069C365.433 108.142 365.447 108.194 365.531 108.274C365.699 108.446 366.035 108.592 366.338 108.66C366.656 108.739 366.997 108.747 367.345 108.778C367.512 108.815 367.696 108.725 367.989 108.934C368.133 109.07 368.105 109.273 368.08 109.351L368.011 109.612C367.9 109.952 367.809 110.297 367.683 110.635L367.651 110.628L367.845 109.579C367.858 109.413 367.966 109.208 367.849 109.089C367.717 108.988 367.519 109.035 367.346 109.027C366.647 109.028 365.875 108.984 365.305 108.502C365.169 108.376 365.093 108.17 365.15 107.986C365.206 107.803 365.343 107.668 365.484 107.558C365.776 107.34 366.11 107.216 366.423 107.045L368.326 106.081L368.34 106.11Z" fill="#F25C5E"/>
<path d="M365.502 105.726C365.676 105.741 365.807 105.799 365.93 105.862C366.054 105.925 366.144 106.019 366.251 106.097C366.325 106.204 366.419 106.294 366.479 106.416C366.537 106.538 366.59 106.666 366.598 106.835L366.575 106.855C366.196 106.499 365.831 106.129 365.478 105.748L365.502 105.726Z" fill="#F25C5E"/>
<path d="M364.06 107.519C364.388 107.727 364.677 107.956 364.973 108.176C365.267 108.396 365.541 108.635 365.842 108.84C366.111 109.076 366.423 109.296 366.693 109.505C366.826 109.606 366.966 109.684 367.115 109.709C367.267 109.75 367.437 109.73 367.593 109.624L367.618 109.644C367.368 109.972 366.883 109.911 366.574 109.722C366.247 109.536 365.944 109.317 365.645 109.093C365.058 108.632 364.517 108.11 364.035 107.54L364.06 107.519Z" fill="#F25C5E"/>
<path d="M366.842 109.859C366.862 110.282 366.846 110.81 366.365 111.164C366.134 111.338 365.809 111.343 365.56 111.281C365.302 111.219 365.085 111.1 364.888 110.968C364.518 110.666 364.225 110.343 363.961 109.994C363.701 109.643 363.458 109.278 363.275 108.872L363.3 108.852C363.57 109.186 363.854 109.51 364.145 109.826C364.438 110.139 364.731 110.458 365.076 110.709C365.404 110.952 365.859 111.162 366.243 110.946C366.618 110.73 366.728 110.26 366.81 109.852L366.842 109.859Z" fill="#F25C5E"/>
<path d="M365.364 110.637C365.442 110.912 365.42 111.201 365.341 111.478C365.296 111.616 365.255 111.761 365.128 111.909L364.855 112.075C364.775 112.102 364.694 112.121 364.613 112.132C364.292 112.202 363.968 112.043 363.75 111.96C363.64 111.898 363.509 111.845 363.371 111.744C363.243 111.632 363.173 111.498 363.134 111.358L363.158 111.336C363.323 111.551 363.566 111.646 363.827 111.7C364.077 111.784 364.33 111.848 364.588 111.83C364.713 111.817 364.851 111.801 364.937 111.713C365.026 111.624 365.089 111.508 365.142 111.39C365.245 111.152 365.325 110.895 365.332 110.637L365.364 110.637Z" fill="#F25C5E"/>
<path d="M402.346 96.8636C402.346 96.8636 396.884 96.0989 394.706 100.55C392.528 105.001 387.698 124.889 387.698 124.889L374.25 112.009L369.042 121.48C369.042 121.48 388.171 145.629 393.664 143.925C399.157 142.22 402.409 102.932 402.346 96.8636Z" fill="#F24F80"/>
<path d="M401.468 97.8035C401.706 98.3794 394.7 115.077 394.984 120.727C395.268 126.42 399.156 135.998 398.853 136.855C398.853 136.855 403.271 140.339 427.637 136.502C435.127 129.949 428.546 107.674 426.031 100.621C426.031 100.621 421.234 98.222 419.169 98.0694C419.169 98.0694 411.079 100.656 401.468 97.8035Z" fill="#F24F80"/>
<path d="M419.23 98.0426L415.779 93.5289C415.779 93.5289 411.668 96.4516 405.495 98.608L405.601 100.225C405.809 103.407 409.294 105.259 412.045 103.648C414.913 101.969 417.987 99.8802 419.23 98.0426Z" fill="#FDE0EC"/>
<path d="M404.666 93.2821C404.666 93.2821 403.635 97.1935 405.577 98.6858L405.021 100.042C404.375 101.906 401.619 101.583 401.453 99.6158C401.388 98.844 401.391 98.1364 401.504 97.5855L404.666 93.2821Z" fill="#FDE0EC"/>
<path d="M422.032 187.459L453.515 167.287L440.451 146.898L413.255 164.325C410.887 165.84 410.198 168.989 411.715 171.356L422.032 187.459Z" fill="#FABA44"/>
<path d="M432.626 151.818H433.665V150.908H432.626V151.818Z" fill="#86A5B1"/>
<path d="M432.541 151.966C432.516 151.808 432.49 151.649 432.463 151.489L432.626 151.359C432.674 151.512 432.721 151.665 432.769 151.82L432.541 151.966Z" fill="#406283"/>
<path d="M429.003 154.233L432.463 151.489C432.49 151.649 432.516 151.808 432.541 151.966L429.003 154.233Z" fill="#3B5B78"/>
<path d="M429.37 182.494C428.538 182.494 429.543 177.837 429.388 175.344C429.385 175.3 429.382 175.28 429.378 175.28C429.339 175.28 429.243 177.064 429.188 177.889L429.066 179.899C427.869 179.351 427.893 177.042 427.707 176.265C427.455 175.222 427.659 174.553 427.781 174.301C428.327 173.161 429.37 170.897 429.532 168.865C429.628 167.668 428.79 163.226 428.096 154.952L429.003 154.233L432.541 151.966L432.77 151.82L433.665 151.246C434.826 152.276 437.51 156.057 434.348 167.653C434.141 168.415 433.962 169.282 434.116 170.056L434.998 176.24C435.129 176.903 435.219 177.791 434.657 178.165C433.954 178.633 429.947 182.316 429.46 182.478C429.428 182.489 429.397 182.494 429.37 182.494Z" fill="#84906D"/>
<path d="M433.842 115.89C443.251 168.442 437.139 178.421 436.523 178.831C435.752 179.345 431.361 183.38 430.827 183.559C429.742 183.92 430.926 178.562 430.748 175.74C430.717 175.237 430.597 177.527 430.53 178.529L430.396 180.732C429.083 180.131 429.11 177.601 428.905 176.748C428.63 175.606 428.854 174.873 428.987 174.597C429.586 173.347 430.729 170.865 430.906 168.638C431.011 167.326 422.094 124.646 420.526 118.375C418.396 109.853 421.077 100.065 424.077 99.734C427.8 99.3228 433.063 111.537 433.842 115.89Z" fill="#F29498"/>
<path d="M440.447 165.612C440.068 164.003 442.094 133.345 435.256 113.288C432.2 104.323 427.8 99.323 424.077 99.7342C421.077 100.065 418.396 109.853 420.526 118.376C422.094 124.647 425.389 152.638 428.136 166.938L440.447 165.612Z" fill="#F24F80"/>
<path d="M100.979 281.529C100.979 279.926 78.3739 278.625 50.4891 278.625C22.6048 278.625 0 279.926 0 281.529C0 283.134 22.6048 284.435 50.4891 284.435C78.3739 284.435 100.979 283.134 100.979 281.529Z" fill="#7A95CA"/>
<path d="M94.8771 273.44L93.3302 270.383L84.1164 270.716L83.9092 273.44L88.2382 280.952L96.0312 274.942L94.8771 273.44Z" fill="#F18C9E"/>
<path d="M89.256 270.69L88.8697 277.786C88.8697 277.786 86.4754 276.428 83.6772 273.921L84.062 269.903L89.256 270.69Z" fill="#E85E77"/>
<path d="M95.4328 273.335C95.4328 273.335 92.727 273.284 89.577 275.672C87.7016 277.095 84.8697 274.16 84.0015 273.402C83.8248 273.249 83.5846 273.387 83.5549 273.66L82.4658 283.58H109.886C110.204 283.58 110.462 283.244 110.462 282.829V280.742C110.462 280.418 110.304 280.131 110.068 280.029L95.4328 273.335Z" fill="#2D4777"/>
<path d="M96.8769 273.687L92.4619 276.24L92.6571 276.577L97.0712 274.023" fill="white"/>
<path d="M98.8007 274.672L94.3857 277.225L94.5809 277.562L98.9951 275.009" fill="white"/>
<path d="M50.2023 273.44L48.6554 270.383L40.1998 269.115L39.2344 273.44L43.5642 280.952L51.3572 274.942L50.2023 273.44Z" fill="#F18C9E"/>
<path d="M43.6621 270.494L44.4299 277.196C44.4299 277.196 42.0365 275.838 39.2383 273.33L40.0069 269.904L43.6621 270.494Z" fill="#E85E77"/>
<path d="M50.7588 273.335C50.7588 273.335 48.0522 273.284 44.9022 275.672C43.0276 277.095 40.1949 274.16 39.3267 273.402C39.1508 273.249 38.9106 273.387 38.8801 273.66L37.791 283.58H65.2108C65.5297 283.58 65.7883 283.244 65.7883 282.829V280.742C65.7883 280.418 65.6293 280.131 65.3939 280.029L50.7588 273.335Z" fill="#2D4777"/>
<path d="M52.8224 273.885L48.4082 276.438L48.6034 276.774L53.0175 274.221" fill="white"/>
<path d="M54.7459 274.868L50.3318 277.422L50.527 277.759L54.9411 275.206" fill="white"/>
<path d="M66.1643 61.6945C66.5402 61.8134 67.0839 62.0599 67.5827 62.5667L66.8791 62.1876L66.1643 61.6945ZM82.1263 41.1521C83.3688 41.9007 83.8731 43.1078 83.9029 44.4322C83.3439 41.8244 80.8814 40.5594 78.4068 41.226C79.5289 40.5409 80.9336 40.4333 82.1263 41.1521ZM83.5438 49.66C85.4481 46.6256 86.0746 42.091 82.7447 40.0695C81.0099 39.0157 78.757 39.2583 77.2085 40.5417C76.4905 41.1377 75.9524 41.8886 75.5163 42.7094C74.8384 41.7577 73.8425 41.1055 72.6016 41.1312C71.5406 41.1537 70.3046 41.9689 69.5215 43.0315C68.4573 42.6982 67.2357 42.6669 66.3241 42.8958C63.9693 43.4885 63.55 46.5807 64.8511 48.395C63.1742 50.6406 62.6963 53.7842 65.0784 61.6214L65.1041 61.7041L68.3465 63.4502L68.4413 63.2647L68.5368 63.0807L68.2846 62.945L71.5157 52.4967C71.9334 52.2068 74.6151 50.4294 76.0215 51.5201C77.4519 52.6292 79.0855 53.6942 80.3649 53.1858C80.9336 52.9593 81.4468 52.3939 81.8227 51.8767C82.6363 51.3795 83.1896 50.5836 83.5438 49.66Z" fill="#0E1422"/>
<path d="M93.1651 153.38C93.1651 153.38 96.6917 195.561 97.0226 207.216C97.3543 218.87 95.0147 270.825 95.0147 270.825L80.3459 271.085C80.3459 271.085 70.0984 183.922 55.8503 155.814L93.1651 153.38Z" fill="#D14467"/>
<path d="M75.1831 155.646C75.1839 155.648 75.3405 156.407 75.6144 157.754C76.575 162.468 78.9756 174.356 81.1361 185.883C82.2164 191.646 83.2364 197.32 83.9857 201.959C84.7359 206.596 85.2145 210.211 85.2137 211.818C85.2137 219.309 86.6948 270.718 86.6948 270.72L87.0835 270.708C87.0835 270.708 87.061 269.905 87.02 268.485C86.7365 258.544 85.6033 218.355 85.6033 211.818C85.6017 209.914 84.9736 205.473 84.0323 199.846C81.2092 182.978 75.5646 155.568 75.5646 155.567L75.1831 155.646Z" fill="white"/>
<path d="M79.5964 265.604H95.1416V265.216H79.5964V265.604Z" fill="white"/>
<path d="M93.1955 153.379C93.1955 153.379 85.041 188.541 76.7596 213.417C70.0677 233.519 55.2446 272.015 55.2446 272.015L38.7952 271.605L53.0817 214.015C53.8423 211.014 54.3218 207.947 54.517 204.853C55.2519 193.172 52.8504 169.568 51.8465 154.443L93.1955 153.379Z" fill="#F24F80"/>
<path d="M64.4326 154.051C64.4326 154.054 64.5466 155.405 64.7185 157.685C65.2341 164.524 66.2654 179.685 66.2654 191.51C66.2654 195.052 66.173 198.296 65.9465 200.923C65.7225 203.547 65.3562 205.565 64.8414 206.613C63.9627 208.413 62.2625 213.342 60.1903 219.754C53.9787 238.981 44.4805 271.445 44.4797 271.446L44.8532 271.555C44.854 271.552 45.1174 270.653 45.5857 269.061C47.2257 263.49 51.3724 249.464 55.487 236.057C57.5447 229.353 59.5944 222.804 61.3187 217.544C63.0415 212.287 64.4446 208.308 65.1908 206.784C65.7498 205.634 66.1048 203.603 66.3345 200.956C66.5618 198.312 66.6549 195.06 66.6549 191.51C66.6541 175.715 64.8205 154.021 64.8197 154.018L64.4326 154.051Z" fill="#0E1422"/>
<path d="M40.4448 266.586H56.9497V266.197H40.4448V266.586Z" fill="#0E1422"/>
<path d="M78.2895 153.524L66.0068 169.632L66.316 169.867L78.5995 153.76" fill="#0E1422"/>
<path d="M73.4802 87.0156C73.4802 87.0156 73.0136 83.2311 76.5129 82.6801C80.0123 82.13 89.4454 79.629 113.427 87.8188C113.427 87.8188 117.582 64.5987 117.622 62.7201C117.727 57.8321 119.276 51.4855 123.06 48.1355C123.37 47.8608 123.595 60.2576 123.731 66.8732C123.731 66.8732 126.923 100.182 123.029 103.529C119.136 106.878 69.6082 98.4277 73.4802 87.0156Z" fill="#F18C9E"/>
<path d="M80.5711 81.2542C80.5711 81.2542 67.0355 79.0078 67.4298 89.5629C67.8234 100.116 94.1967 107.279 101.364 105.565L99.1441 82.1208L80.5711 81.2542Z" fill="#2D4777"/>
<path d="M101.26 105.224C99.1554 107.748 78.5625 102.449 76.3048 99.0096C76.3048 99.0096 75.953 87.4835 76.8301 87.2457C85.77 84.8218 101.26 105.224 101.26 105.224Z" fill="#0E1422"/>
<path d="M101.26 105.224L101.102 105.092C100.96 105.265 100.657 105.423 100.209 105.524C99.7637 105.626 99.1822 105.677 98.5004 105.676C95.4283 105.678 90.3443 104.667 85.8201 103.304C83.5576 102.623 81.4317 101.854 79.7635 101.084C78.0961 100.318 76.8834 99.528 76.477 98.8968L76.3051 99.01L76.5115 99.0036C76.5115 99.0028 76.4938 98.4342 76.4762 97.5451C76.4593 96.656 76.4416 95.448 76.4416 94.1726C76.4416 92.5815 76.4689 90.8861 76.5565 89.5777C76.5999 88.9239 76.6585 88.3666 76.7348 87.9754C76.7717 87.7803 76.8151 87.626 76.8553 87.5313L76.9051 87.4397L76.9099 87.4333L76.8946 87.4188L76.9059 87.4365L76.9099 87.4333L76.8946 87.4188L76.9059 87.4365L76.8633 87.3674L76.8842 87.4453L76.9059 87.4365L76.8633 87.3674L76.8842 87.4453C77.3661 87.3144 77.8696 87.2526 78.3917 87.2526C80.5883 87.2502 83.1247 88.3641 85.6755 90.0588C89.5042 92.5976 93.365 96.4222 96.262 99.6108C97.7117 101.206 98.9204 102.64 99.7669 103.677C100.19 104.195 100.523 104.614 100.749 104.902C100.976 105.19 101.095 105.349 101.095 105.349L101.26 105.224L101.102 105.092L101.26 105.224L101.425 105.099C101.421 105.095 97.9671 100.544 93.3714 95.9885C91.0736 93.71 88.4906 91.4298 85.9044 89.7143C83.3175 88.0003 80.7281 86.8422 78.3917 86.8398C77.8367 86.8398 77.2962 86.9056 76.7766 87.047C76.5974 87.1056 76.5364 87.2365 76.4746 87.3706C76.3734 87.614 76.3051 87.9706 76.2465 88.43C76.0746 89.8042 76.0288 92.0772 76.0288 94.1726C76.0288 96.7307 76.0979 99.0156 76.0979 99.0164L76.1003 99.0751L76.1324 99.1233C76.6497 99.8991 77.8954 100.671 79.59 101.459C84.6724 103.802 93.7738 106.086 98.5004 106.09C99.2023 106.09 99.8095 106.039 100.302 105.927C100.793 105.813 101.178 105.642 101.419 105.356L101.524 105.23L101.425 105.099L101.26 105.224Z" fill="#0E1422"/>
<path d="M61.3169 80.0617C61.3169 80.0617 42.8973 81.9419 41.7376 97.1963C40.5778 112.449 50.1049 154.694 50.1049 154.694L96.2431 153.226L93.7219 100.802C93.5348 96.9128 92.3357 93.1476 90.2507 89.8908C88.3247 86.8837 86.0695 83.4751 84.7884 83.3145L64.1336 78.004L61.3169 80.0617Z" fill="#2D4777"/>
<path d="M57.5132 85.8027C46.322 81.313 42.3174 89.5687 41.7376 97.1963C40.5778 112.449 50.1049 154.694 50.1049 154.694L96.2431 153.226" fill="#253B62"/>
<path d="M81.8948 133.221C81.9993 134.025 81.8715 134.706 81.6097 134.742C81.3479 134.777 81.0515 134.154 80.9471 133.35C80.8435 132.546 80.9712 131.866 81.233 131.831C81.4949 131.795 81.7912 132.417 81.8948 133.221Z" fill="white"/>
<path d="M67.1161 66.2635L66.0391 76.6323L76.7251 85.5449L78.2993 80.9171L77.4704 72.3482L68.8557 64.5496C68.8557 64.5496 67.5305 65.4925 67.3651 65.8354C67.1988 66.1776 67.1161 66.2635 67.1161 66.2635Z" fill="#F18C9E"/>
<path d="M68.8557 64.551L77.4704 72.3496L78.0792 77.4473C78.0792 77.4473 70.2588 75.2932 69.9866 68.8302" fill="#0E1422"/>
<path d="M78.3096 92.2385C78.4132 93.0425 78.2855 93.722 78.0237 93.7573C77.7618 93.7934 77.4655 93.1702 77.3619 92.367C77.2575 91.5631 77.3852 90.882 77.647 90.8466C77.9088 90.8113 78.2052 91.4346 78.3096 92.2385Z" fill="white"/>
<path d="M79.0269 100.435C79.1313 101.239 79.0028 101.918 78.741 101.955C78.4799 101.99 78.1828 101.368 78.0792 100.564C77.9747 99.7596 78.1024 99.0793 78.3643 99.044C78.6261 99.0078 78.9225 99.6311 79.0269 100.435Z" fill="white"/>
<path d="M79.7442 108.631C79.8478 109.435 79.7201 110.115 79.4582 110.15C79.1964 110.185 78.9 109.563 78.7964 108.76C78.692 107.956 78.8197 107.275 79.0816 107.239C79.3434 107.204 79.6397 107.827 79.7442 108.631Z" fill="white"/>
<path d="M80.4615 116.828C80.5651 117.632 80.4374 118.312 80.1755 118.347C79.9137 118.383 79.6173 117.76 79.5137 116.956C79.4093 116.152 79.537 115.472 79.7988 115.437C80.0607 115.401 80.357 116.024 80.4615 116.828Z" fill="white"/>
<path d="M81.1784 125.024C81.282 125.827 81.1543 126.508 80.8924 126.543C80.6306 126.579 80.3342 125.956 80.2298 125.152C80.1262 124.348 80.2539 123.667 80.5157 123.633C80.7776 123.598 81.0739 124.22 81.1784 125.024Z" fill="white"/>
<path d="M82.6129 141.418C82.7165 142.222 82.5888 142.903 82.327 142.938C82.0652 142.973 81.7688 142.35 81.6644 141.546C81.5608 140.743 81.6885 140.063 81.9503 140.027C82.2122 139.992 82.5085 140.614 82.6129 141.418Z" fill="white"/>
<path d="M83.3302 149.614C83.4338 150.418 83.3061 151.098 83.0443 151.134C82.7825 151.17 82.4861 150.546 82.3817 149.742C82.2781 148.938 82.4058 148.259 82.6676 148.223C82.9294 148.188 83.2258 148.81 83.3302 149.614Z" fill="white"/>
<path d="M65.708 75.8611L60.0144 78.5163L74.2399 90.6006L76.7249 85.5447L65.708 75.8611Z" fill="white"/>
<path d="M78.2993 79.803C78.5475 79.8889 80.7843 81.4318 80.7843 81.4318L80.867 89.0586L76.7251 85.5448L78.2993 79.803Z" fill="white"/>
<path d="M90.8028 132.713L101.07 100.492C101.64 98.7063 102.931 97.2646 104.607 96.5402L125.632 87.4596C126.254 87.1906 126.892 87.8074 126.675 88.4676L116.301 120.034C115.742 121.733 114.528 123.117 112.947 123.855L91.8686 133.705C91.2478 133.995 90.5892 133.383 90.8028 132.713Z" fill="#2D4777"/>
<path d="M92.5682 134.599L102.836 102.379C103.405 100.593 104.696 99.1508 106.373 98.4272L127.396 89.3458C128.02 89.0768 128.657 89.6936 128.44 90.3546L118.066 121.92C117.507 123.619 116.293 125.003 114.712 125.742L93.634 135.591C93.0132 135.882 92.3546 135.269 92.5682 134.599Z" fill="white"/>
<path d="M97.8271 111.016L105.568 113.309L95.7903 117.271L97.8271 111.016Z" fill="#0E1422"/>
<path d="M97.8271 111.016L105.568 113.309L95.7903 117.271L97.8271 111.016L95.7903 117.271L105.568 113.309L97.8271 111.016Z" fill="#1A2647"/>
<path d="M107.007 104.324L125.205 96.54L125.043 96.1601L106.845 103.944" fill="#1A2647"/>
<path d="M107.005 107.754L122.034 101.545L121.877 101.164L106.847 107.372" fill="#1A2647"/>
<path d="M98.7772 126.931L118.243 118.406L116.976 122.483L97.1484 131.379L98.7772 126.931Z" fill="#FABA44"/>
<path d="M105.652 116.686C104.516 117.707 84.1099 138.635 74.3274 148.065C71.6891 150.607 67.4596 149.984 65.6084 146.784L48.4248 117.985L64.7072 105.352C64.8229 105.53 73.3315 119.994 75.2912 127.249C75.9362 129.635 77.0526 129.453 78.989 128.267L93.8466 119.108C93.8466 119.108 93.8217 116.51 94.1518 115.529C94.7799 113.661 97.7588 111.154 97.7588 111.154L96.4689 115.115C96.2368 115.783 95.4754 116.265 96.6761 116.409L106.111 109.416C106.111 109.416 106.972 109.347 106.157 110.274C105.341 111.2 104.459 112.173 104.572 112.243C104.685 112.313 107.266 110.506 107.379 111.2C107.492 111.895 105.274 113.562 105.365 113.632C105.455 113.702 107.877 111.71 108.013 112.359C108.148 113.008 106.315 114.259 106.224 114.513C106.134 114.767 108.216 113.169 108.307 113.517C108.397 113.864 106.302 116.103 105.652 116.686Z" fill="#F18C9E"/>
<path d="M60.3968 92.5487C60.3968 92.5487 55.7577 79.5239 46.8113 85.0079C37.865 90.4926 44.4926 117.229 49.4626 122.713L68.6805 109.345L60.3968 92.5487Z" fill="#2D4777"/>
<path d="M68.0188 61.6595C67.9152 61.9342 67.5771 62.0145 67.3707 61.8121C66.6687 61.123 65.2728 60.1793 64.7717 62.9213C64.0914 66.6439 67.9771 66.0038 68.2871 66.5058C68.9144 67.5218 70.9287 70.9368 73.9309 72.2628C75.7605 73.07 78.4703 73.1985 80.4686 71.2798C82.4668 69.361 83.3608 70.675 82.5223 50.1623C82.5223 50.1623 81.6075 51.9285 80.2911 52.3847C78.9747 52.8393 76.8648 51.0145 75.3661 50.5952C74.1485 50.2555 71.788 49.3632 70.3464 53.5982C69.6838 55.5435 68.6292 60.0468 68.0188 61.6595Z" fill="#F18C9E"/>
<path d="M81.9673 60.4031C81.9665 60.3991 81.9304 60.2064 81.8508 60.0056C81.8107 59.9052 81.7609 59.8016 81.691 59.714C81.6236 59.6297 81.524 59.5494 81.3898 59.5486C81.2509 59.5494 81.1296 59.6337 81.0172 59.7743C80.9039 59.9164 80.7883 60.1277 80.6614 60.4393L80.9055 60.5381C81.026 60.2409 81.1344 60.0482 81.2228 59.9381C81.3127 59.8265 81.3706 59.8104 81.3898 59.812L81.4854 59.8795C81.5513 59.959 81.6131 60.1068 81.6509 60.2313C81.6902 60.355 81.7087 60.4529 81.7087 60.4529L81.9673 60.4031Z" fill="#1A2647"/>
<path d="M75.9645 60.4016L66.6695 60.6498L66.6735 60.7815L66.6864 60.6498C66.6832 60.6498 66.6181 60.6433 66.5105 60.6433C66.2736 60.6441 65.8302 60.6731 65.3885 60.8747C64.9475 61.0747 64.5074 61.4602 64.3179 62.1412L64.5709 62.2119C64.7419 61.6095 65.109 61.2947 65.4985 61.1148C65.8864 60.9365 66.296 60.9068 66.5105 60.9068C66.6077 60.9068 66.6599 60.9124 66.6607 60.9124L66.6687 60.9132L75.9717 60.665L75.9645 60.4016Z" fill="#1A2647"/>
<path d="M84.6682 59.6076H84.5333C84.5333 60.5039 84.3735 61.3151 84.1229 61.8893C83.9976 62.1769 83.8498 62.405 83.6948 62.5544C83.539 62.7054 83.384 62.776 83.229 62.776C83.0732 62.776 82.9182 62.7054 82.7623 62.5544C82.2917 62.1054 81.9206 60.9513 81.9246 59.6076C81.9238 58.7113 82.0837 57.9001 82.3351 57.325C82.4595 57.0383 82.6081 56.8102 82.7623 56.66C82.9182 56.5098 83.074 56.4391 83.229 56.4391C83.384 56.4391 83.539 56.5098 83.6948 56.66C84.1663 57.1098 84.5365 58.2639 84.5333 59.6076H84.6682H84.8032C84.8024 58.6791 84.6401 57.8382 84.3703 57.2174C84.2345 56.9074 84.0723 56.6512 83.8827 56.4664C83.694 56.2825 83.4707 56.1684 83.229 56.1684C82.9864 56.1684 82.7631 56.2825 82.5744 56.4664C82.0122 57.0206 81.658 58.2141 81.6548 59.6076C81.6548 60.536 81.817 61.3769 82.0877 61.9978C82.2226 62.3078 82.3849 62.564 82.5744 62.7487C82.7631 62.9319 82.9864 63.0459 83.229 63.0459C83.4707 63.0459 83.694 62.9319 83.8827 62.7487C84.445 62.1946 84.7991 61.0011 84.8032 59.6076H84.6682Z" fill="#1A2647"/>
<path d="M80.7657 59.9962H80.634C80.6348 61.0684 80.3665 62.0378 79.9417 62.7285C79.5152 63.4224 78.9441 63.8272 78.3345 63.8264C77.7257 63.8272 77.1547 63.4224 76.7282 62.7285C76.3034 62.0378 76.0359 61.0684 76.0359 59.9962C76.0359 58.9247 76.3034 57.9553 76.7282 57.2646C77.1547 56.5707 77.7257 56.1659 78.3345 56.1675C78.9441 56.1659 79.5152 56.5707 79.9417 57.2646C80.3665 57.9553 80.6348 58.9247 80.634 59.9962H80.7657H80.8974C80.8974 58.8806 80.6211 57.8686 80.1665 57.1265C79.7128 56.3868 79.0686 55.9048 78.3345 55.904C77.6013 55.9048 76.9571 56.3868 76.5041 57.1265C76.0487 57.8686 75.7725 58.8806 75.7725 59.9962C75.7725 61.1125 76.0487 62.1245 76.5041 62.8666C76.9571 63.6071 77.6013 64.089 78.3345 64.0898C79.0686 64.089 79.7128 63.6071 80.1665 62.8666C80.6211 62.1245 80.8974 61.1125 80.8974 59.9962H80.7657Z" fill="#1A2647"/>
<path d="M82.4549 64.9235C82.4549 64.9235 81.2502 65.5234 78.3042 65.2463C78.3042 65.2463 79.8888 67.3932 81.0494 66.9779C82.2091 66.5619 82.4549 64.9235 82.4549 64.9235Z" fill="white"/>
<path d="M65.355 62.6437L67.407 64.1914C67.407 64.1914 66.6416 60.4495 65.355 62.6437Z" fill="#E85E77"/>
<path d="M80.0486 60.5728C80.0486 61.0217 79.8711 61.3848 79.6518 61.3848C79.4334 61.3848 79.2559 61.0217 79.2559 60.5728C79.2559 60.1246 79.4334 59.7616 79.6518 59.7616C79.8711 59.7616 80.0486 60.1246 80.0486 60.5728Z" fill="#0E1422"/>
<path d="M82.6284 60.1771C82.6284 60.6245 82.4509 60.9883 82.2317 60.9883C82.0132 60.9883 81.8357 60.6245 81.8357 60.1771C81.8357 59.7289 82.0132 59.3659 82.2317 59.3659C82.4509 59.3659 82.6284 59.7289 82.6284 60.1771Z" fill="#0E1422"/>
<path d="M76.7153 57.0757C76.1274 57.4861 77.047 55.6316 77.8445 55.4244C78.6437 55.218 79.4316 55.6228 79.6059 56.3287C79.6059 56.3287 78.1264 56.091 76.7153 57.0757Z" fill="#0E1422"/>
<path d="M82.7502 56.8788C81.9085 56.7696 81.3037 56.9189 81.3037 56.9189C81.4129 56.2507 82.0338 55.7825 82.7647 55.764" fill="#0E1422"/>
<path d="M81.4147 60.1529L82.6227 63.5904L82.552 63.7109L81.1256 63.8193L81.0388 63.7246L81.2565 60.1794C81.2621 60.0847 81.3834 60.0646 81.4147 60.1529Z" fill="#E85E77"/>
</svg>
