<svg width="160" height="41" viewBox="0 0 160 41" fill="none" xmlns="http://www.w3.org/2000/svg">
<path fill-rule="evenodd" clip-rule="evenodd" d="M6.87707 0.0103613L26.4937 1.48142C28.3171 1.61676 29.7299 3.09959 29.7299 4.88251L29.899 12.2908L27.6529 37.8578C27.496 39.6349 25.9684 41 24.139 41H8.61594C6.78651 41 5.25896 39.6349 5.10198 37.8578L2.85596 12.3084V4.91194L3.10349 3.00544C3.33896 1.18721 4.99933 -0.130861 6.87103 0.0103613H6.87707Z" fill="#203164"/>
<path d="M29.3917 4.82971H3.52605C1.57868 4.82971 0 6.36824 0 8.26611V8.76039C0 10.6583 1.57868 12.1968 3.52605 12.1968H29.3917C31.3391 12.1968 32.9177 10.6583 32.9177 8.76039V8.26611C32.9177 6.36824 31.3391 4.82971 29.3917 4.82971Z" fill="#F15858"/>
<path d="M16.151 17.0041H8.42271C8.16308 17.0041 7.95178 16.7982 7.95178 16.5452C7.95178 16.2921 8.16308 16.0862 8.42271 16.0862H16.151C16.4106 16.0862 16.622 16.2921 16.622 16.5452C16.622 16.7982 16.4106 17.0041 16.151 17.0041Z" fill="white"/>
<path d="M24.7185 18.9695H8.42869C8.16907 18.9695 7.95776 18.7636 7.95776 18.5105C7.95776 18.2575 8.16907 18.0516 8.42869 18.0516H24.7185C24.9781 18.0516 25.1894 18.2575 25.1894 18.5105C25.1894 18.7636 24.9781 18.9695 24.7185 18.9695Z" fill="white"/>
<path d="M13.8023 21.0935H8.42869C8.16907 21.0935 7.95776 20.8876 7.95776 20.6346C7.95776 20.3815 8.16907 20.1756 8.42869 20.1756H13.8023C14.0619 20.1756 14.2732 20.3815 14.2732 20.6346C14.2732 20.8876 14.0619 21.0935 13.8023 21.0935Z" fill="#F26522"/>
<path d="M16.4891 23.2238H8.42869C8.16907 23.2238 7.95776 23.0178 7.95776 22.7648C7.95776 22.5118 8.16907 22.3058 8.42869 22.3058H16.4891C16.7487 22.3058 16.96 22.5118 16.96 22.7648C16.96 23.0178 16.7487 23.2238 16.4891 23.2238Z" fill="white"/>
<path d="M18.1676 25.5125H8.42869C8.16907 25.5125 7.95776 25.3065 7.95776 25.0535C7.95776 24.8005 8.16907 24.5945 8.42869 24.5945H18.1676C18.4272 24.5945 18.6385 24.8005 18.6385 25.0535C18.6385 25.3065 18.4272 25.5125 18.1676 25.5125Z" fill="#FFCE07"/>
<path d="M24.3804 27.6427H8.42271C8.16308 27.6427 7.95178 27.4368 7.95178 27.1838C7.95178 26.9307 8.16308 26.7248 8.42271 26.7248H24.3804C24.6401 26.7248 24.8514 26.9307 24.8514 27.1838C24.8514 27.4368 24.6401 27.6427 24.3804 27.6427Z" fill="white"/>
<path d="M13.9653 29.9317H8.42271C8.16308 29.9317 7.95178 29.7257 7.95178 29.4727C7.95178 29.2197 8.16308 29.0137 8.42271 29.0137H13.9653C14.225 29.0137 14.4363 29.2197 14.4363 29.4727C14.4363 29.7257 14.225 29.9317 13.9653 29.9317Z" fill="#F26522"/>
<path d="M11.9546 37.2987H10.4452C10.1856 37.2987 9.97424 37.0927 9.97424 36.8397C9.97424 36.5867 10.1856 36.3807 10.4452 36.3807H11.9546C12.2143 36.3807 12.4256 36.5867 12.4256 36.8397C12.4256 37.0927 12.2143 37.2987 11.9546 37.2987Z" fill="white"/>
<path d="M24.0422 23.2238H18.4996C18.24 23.2238 18.0287 23.0178 18.0287 22.7648C18.0287 22.5118 18.24 22.3058 18.4996 22.3058H24.0422C24.3019 22.3058 24.5132 22.5118 24.5132 22.7648C24.5132 23.0178 24.3019 23.2238 24.0422 23.2238Z" fill="#4CBD97"/>
<path d="M21.3555 21.0935H15.9819C15.7223 21.0935 15.511 20.8876 15.511 20.6346C15.511 20.3815 15.7223 20.1756 15.9819 20.1756H21.3555C21.6152 20.1756 21.8265 20.3815 21.8265 20.6346C21.8265 20.8876 21.6152 21.0935 21.3555 21.0935Z" fill="#FFCE07"/>
<path d="M24.0422 17.0041H18.4996C18.24 17.0041 18.0287 16.7982 18.0287 16.5452C18.0287 16.2921 18.24 16.0862 18.4996 16.0862H24.0422C24.3019 16.0862 24.5132 16.2921 24.5132 16.5452C24.5132 16.7982 24.3019 17.0041 24.0422 17.0041Z" fill="#4CBD97"/>
<path d="M8.04824 37.1399C7.98786 37.1399 7.92751 37.1164 7.8792 37.0752C7.78864 36.9869 7.78864 36.8398 7.8792 36.7516L8.89958 35.7571L7.8792 34.7627C7.78864 34.6744 7.78864 34.5273 7.8792 34.4391C7.96977 34.3508 8.12071 34.3508 8.21127 34.4391L9.56372 35.7571L8.21127 37.0752C8.16297 37.1223 8.10257 37.1399 8.0422 37.1399H8.04824Z" fill="white"/>
<path d="M46.1767 30.6672C46.4121 30.9379 46.5329 31.2909 46.5329 31.7205C46.5329 32.2736 46.3216 32.6973 45.905 32.9974C45.4884 33.2974 44.8665 33.4446 44.0453 33.4446H41.0023V26.9954H43.8582C44.5948 26.9954 45.1684 27.1425 45.5729 27.4309C45.9774 27.7192 46.1827 28.1252 46.1827 28.6548C46.1827 29.0137 46.0921 29.3138 45.911 29.561C45.7299 29.8081 45.4823 29.9964 45.1684 30.12C45.6031 30.2141 45.9412 30.3965 46.1767 30.6672ZM41.7027 27.5603V29.9022H43.8099C44.3472 29.9022 44.7578 29.8022 45.0476 29.6021C45.3374 29.4021 45.4823 29.1138 45.4823 28.7313C45.4823 28.3488 45.3374 28.0605 45.0476 27.8604C44.7578 27.6603 44.3472 27.5603 43.8099 27.5603H41.7027ZM45.3797 32.5913C45.6816 32.3972 45.8325 32.0853 45.8325 31.6675C45.8325 30.8614 45.2348 30.4612 44.0393 30.4612H41.7027V32.8855H44.0393C44.631 32.8855 45.0778 32.7855 45.3797 32.5913Z" fill="#203164"/>
<path d="M50.554 28.8079C50.8679 28.6431 51.2544 28.5607 51.7132 28.5607V29.1962L51.5502 29.1845C51.0249 29.1845 50.6204 29.3433 50.3185 29.6552C50.0166 29.9671 49.8717 30.4084 49.8717 30.9733V33.4447H49.2015V28.6019H49.8415V29.5493C49.9985 29.2256 50.234 28.9785 50.5479 28.8138L50.554 28.8079Z" fill="#203164"/>
<path d="M58.5419 31.2202H54.3819C54.4181 31.7263 54.6174 32.1323 54.9797 32.4383C55.3419 32.7442 55.7948 32.9031 56.3382 32.9031C56.6461 32.9031 56.9299 32.8501 57.1895 32.7442C57.4491 32.6383 57.6725 32.4794 57.8597 32.2676L58.24 32.6913C58.0166 32.9502 57.7449 33.1444 57.4129 33.2797C57.0808 33.415 56.7185 33.4798 56.32 33.4798C55.8129 33.4798 55.36 33.3738 54.9615 33.162C54.5691 32.9502 54.2612 32.656 54.0378 32.2794C53.8144 31.9028 53.7057 31.4791 53.7057 31.0084C53.7057 30.5376 53.8083 30.114 54.0197 29.7374C54.231 29.3608 54.5208 29.0725 54.8891 28.8606C55.2574 28.6488 55.674 28.5488 56.1329 28.5488C56.5917 28.5488 57.0083 28.6547 57.3706 28.8606C57.7389 29.0666 58.0227 29.3608 58.2279 29.7315C58.4332 30.1022 58.5419 30.5259 58.5419 31.0084L58.5298 31.2084L58.5419 31.2202ZM54.9374 29.5667C54.6114 29.8668 54.4302 30.2552 54.3819 30.7318H57.908C57.8657 30.2552 57.6785 29.8668 57.3525 29.5667C57.0265 29.2666 56.6219 29.1195 56.1389 29.1195C55.6559 29.1195 55.2574 29.2666 54.9314 29.5667H54.9374Z" fill="#203164"/>
<path d="M68.4378 28.596L66.554 33.4387H65.9201L64.3503 29.4669L62.7805 33.4387H62.1465L60.2748 28.596H60.9148L62.4725 32.715L64.0725 28.596H64.6461L66.234 32.715L67.8099 28.596H68.4257H68.4378Z" fill="#203164"/>
<path d="M70.6597 27.4015C70.5631 27.3073 70.5148 27.2014 70.5148 27.0719C70.5148 26.9484 70.5631 26.8425 70.6597 26.7483C70.7563 26.6542 70.871 26.613 71.0099 26.613C71.1487 26.613 71.2634 26.66 71.36 26.7483C71.4566 26.8366 71.4989 26.9425 71.4989 27.0661C71.4989 27.2014 71.4506 27.3132 71.36 27.4074C71.2634 27.5015 71.1487 27.5486 71.0099 27.5486C70.871 27.5486 70.7563 27.5015 70.6597 27.4074V27.4015ZM70.6718 28.6019H71.3419V33.4446H70.6718V28.6019Z" fill="#203164"/>
<path d="M78.4542 29.0901C78.8225 29.4431 79.0097 29.9551 79.0097 30.6318V33.4385H78.3394V30.6965C78.3394 30.1904 78.2127 29.808 77.9531 29.5432C77.6934 29.2784 77.3251 29.1489 76.8481 29.1489C76.3108 29.1489 75.8881 29.3019 75.5742 29.6138C75.2602 29.9257 75.1093 30.3493 75.1093 30.8966V33.4385H74.4391V28.5958H75.0791V29.4902C75.2602 29.196 75.5138 28.9665 75.8398 28.8018C76.1659 28.637 76.5402 28.5546 76.9689 28.5546C77.5908 28.5546 78.0919 28.7312 78.4602 29.0842L78.4542 29.0901Z" fill="#203164"/>
<path d="M86.6476 28.5959V32.8502C86.6476 33.674 86.4423 34.2801 86.0257 34.6802C85.6091 35.0803 84.9932 35.2745 84.16 35.2745C83.7012 35.2745 83.2665 35.2098 82.8499 35.0744C82.4332 34.9391 82.1012 34.7567 81.8416 34.5272L82.1797 34.0329C82.4212 34.2389 82.711 34.4036 83.0551 34.5213C83.3993 34.639 83.7616 34.6978 84.1359 34.6978C84.7638 34.6978 85.2287 34.5566 85.5246 34.2683C85.8204 33.98 85.9713 33.5387 85.9713 32.9385V32.3206C85.7661 32.6266 85.4883 32.862 85.1563 33.0208C84.8242 33.1797 84.4438 33.2621 84.0393 33.2621C83.5744 33.2621 83.1517 33.1621 82.7653 32.962C82.3849 32.7619 82.0831 32.4854 81.8657 32.1264C81.6483 31.7675 81.5397 31.3615 81.5397 30.9084C81.5397 30.4553 81.6483 30.0493 81.8657 29.6904C82.0831 29.3373 82.3789 29.0607 82.7593 28.8607C83.1396 28.6606 83.5623 28.5665 84.0333 28.5665C84.4559 28.5665 84.8363 28.6488 85.1744 28.8136C85.5125 28.9784 85.7902 29.2196 85.9955 29.5315V28.6018H86.6355L86.6476 28.5959ZM85.0778 32.4501C85.3676 32.2971 85.591 32.0911 85.754 31.8205C85.917 31.5498 85.9955 31.2438 85.9955 30.8966C85.9955 30.5495 85.917 30.2494 85.754 29.9787C85.591 29.7139 85.3676 29.5021 85.0838 29.355C84.8 29.2078 84.474 29.1314 84.1057 29.1314C83.7374 29.1314 83.4234 29.202 83.1397 29.355C82.8559 29.5021 82.6325 29.7139 82.4695 29.9787C82.3065 30.2494 82.2279 30.5553 82.2279 30.9025C82.2279 31.2497 82.3065 31.5557 82.4695 31.8263C82.6325 32.097 82.8559 32.3088 83.1397 32.456C83.4234 32.6031 83.7495 32.6796 84.1057 32.6796C84.4619 32.6796 84.788 32.6031 85.0778 32.456V32.4501Z" fill="#203164"/>
<path d="M93.5847 26.9954H94.2851V33.4446H93.5847V26.9954Z" fill="#203164"/>
<path d="M101.543 29.0901C101.911 29.4431 102.098 29.9551 102.098 30.6318V33.4385H101.428V30.6965C101.428 30.1904 101.301 29.808 101.041 29.5432C100.782 29.2784 100.413 29.1489 99.9365 29.1489C99.3992 29.1489 98.9765 29.3019 98.6626 29.6138C98.3486 29.9257 98.1976 30.3493 98.1976 30.8966V33.4385H97.5275V28.5958H98.1675V29.4902C98.3486 29.196 98.6021 28.9665 98.9282 28.8018C99.2542 28.637 99.6286 28.5546 100.057 28.5546C100.679 28.5546 101.18 28.7312 101.549 29.0842L101.543 29.0901Z" fill="#203164"/>
<path d="M109.156 29.0901C109.525 29.4431 109.712 29.9551 109.712 30.6318V33.4385H109.041V30.6965C109.041 30.1904 108.915 29.808 108.655 29.5432C108.395 29.2784 108.027 29.1489 107.55 29.1489C107.013 29.1489 106.59 29.3019 106.276 29.6138C105.962 29.9257 105.811 30.3493 105.811 30.8966V33.4385H105.141V28.5958H105.781V29.4902C105.962 29.196 106.216 28.9665 106.542 28.8018C106.868 28.637 107.242 28.5546 107.671 28.5546C108.293 28.5546 108.794 28.7312 109.162 29.0842L109.156 29.0901Z" fill="#203164"/>
<path d="M113.491 33.174C113.105 32.9621 112.803 32.6679 112.586 32.2913C112.362 31.9147 112.254 31.4911 112.254 31.0203C112.254 30.5496 112.362 30.1259 112.586 29.7493C112.809 29.3728 113.111 29.0844 113.491 28.8726C113.872 28.6608 114.306 28.5607 114.783 28.5607C115.26 28.5607 115.695 28.6666 116.076 28.8726C116.456 29.0785 116.758 29.3728 116.981 29.7493C117.199 30.1259 117.307 30.5496 117.307 31.0203C117.307 31.4911 117.199 31.9147 116.981 32.2913C116.764 32.6679 116.462 32.9621 116.076 33.174C115.689 33.3858 115.26 33.4917 114.783 33.4917C114.306 33.4917 113.872 33.3858 113.491 33.174ZM115.737 32.6797C116.015 32.5208 116.239 32.3031 116.396 32.0148C116.553 31.7265 116.631 31.3969 116.631 31.0262C116.631 30.6555 116.553 30.3319 116.396 30.0436C116.239 29.7552 116.021 29.5316 115.737 29.3786C115.46 29.2198 115.14 29.1433 114.789 29.1433C114.439 29.1433 114.119 29.2198 113.842 29.3786C113.564 29.5375 113.34 29.7552 113.177 30.0436C113.014 30.3319 112.936 30.6614 112.936 31.0262C112.936 31.3911 113.014 31.7206 113.177 32.0148C113.34 32.3031 113.558 32.5267 113.842 32.6797C114.119 32.8386 114.439 32.9151 114.789 32.9151C115.14 32.9151 115.46 32.8386 115.737 32.6797Z" fill="#203164"/>
<path d="M124.075 28.596L121.866 33.4387H121.177L118.974 28.596H119.674L121.534 32.7209L123.411 28.596H124.075Z" fill="#203164"/>
<path d="M129.473 29.0374C129.817 29.3551 129.992 29.82 129.992 30.4437V33.4447H129.352V32.6915C129.201 32.9445 128.978 33.1387 128.688 33.2799C128.392 33.4211 128.048 33.4917 127.644 33.4917C127.088 33.4917 126.647 33.3623 126.321 33.1034C125.995 32.8445 125.832 32.5032 125.832 32.0795C125.832 31.6558 125.983 31.3381 126.291 31.0851C126.599 30.832 127.082 30.7085 127.752 30.7085H129.328V30.4143C129.328 29.9965 129.207 29.6787 128.972 29.461C128.73 29.2433 128.38 29.1315 127.921 29.1315C127.607 29.1315 127.306 29.1845 127.016 29.2845C126.726 29.3845 126.478 29.5257 126.267 29.7023L125.965 29.2139C126.219 29.0079 126.521 28.8432 126.871 28.7314C127.221 28.6196 127.595 28.5607 127.988 28.5607C128.64 28.5607 129.135 28.7196 129.479 29.0374H129.473ZM128.718 32.7209C128.99 32.5502 129.189 32.309 129.322 31.9854V31.191H127.764C126.913 31.191 126.49 31.4793 126.49 32.056C126.49 32.3384 126.599 32.562 126.823 32.7209C127.04 32.8856 127.354 32.968 127.746 32.968C128.139 32.968 128.447 32.8856 128.718 32.715V32.7209Z" fill="#203164"/>
<path d="M135.65 33.1505C135.523 33.2623 135.366 33.3447 135.179 33.4035C134.992 33.4624 134.799 33.4918 134.599 33.4918C134.134 33.4918 133.772 33.3682 133.519 33.1211C133.265 32.8739 133.138 32.5268 133.138 32.0796V29.1492H132.251V28.5961H133.138V27.5369H133.808V28.5961H135.318V29.1492H133.808V32.0443C133.808 32.3326 133.881 32.5503 134.032 32.7033C134.183 32.8563 134.394 32.9269 134.672 32.9269C134.811 32.9269 134.943 32.9034 135.076 32.8622C135.203 32.821 135.318 32.7563 135.414 32.6798L135.65 33.1505Z" fill="#203164"/>
<path d="M138.083 27.4015C137.986 27.3073 137.938 27.2014 137.938 27.0719C137.938 26.9484 137.986 26.8425 138.083 26.7483C138.18 26.6542 138.294 26.613 138.433 26.613C138.572 26.613 138.687 26.66 138.783 26.7483C138.88 26.8366 138.922 26.9425 138.922 27.0661C138.922 27.2014 138.874 27.3132 138.783 27.4074C138.687 27.5015 138.572 27.5486 138.433 27.5486C138.294 27.5486 138.18 27.5015 138.083 27.4074V27.4015ZM138.095 28.6019H138.765V33.4446H138.095V28.6019Z" fill="#203164"/>
<path d="M142.587 33.174C142.201 32.9621 141.899 32.6679 141.681 32.2913C141.458 31.9147 141.349 31.4911 141.349 31.0203C141.349 30.5496 141.458 30.1259 141.681 29.7493C141.905 29.3728 142.207 29.0844 142.587 28.8726C142.968 28.6608 143.402 28.5607 143.879 28.5607C144.356 28.5607 144.791 28.6666 145.171 28.8726C145.552 29.0785 145.854 29.3728 146.077 29.7493C146.294 30.1259 146.403 30.5496 146.403 31.0203C146.403 31.4911 146.294 31.9147 146.077 32.2913C145.86 32.6679 145.558 32.9621 145.171 33.174C144.785 33.3858 144.356 33.4917 143.879 33.4917C143.402 33.4917 142.968 33.3858 142.587 33.174ZM144.833 32.6797C145.111 32.5208 145.334 32.3031 145.491 32.0148C145.648 31.7265 145.727 31.3969 145.727 31.0262C145.727 30.6555 145.648 30.3319 145.491 30.0436C145.334 29.7552 145.117 29.5316 144.833 29.3786C144.555 29.2198 144.235 29.1433 143.885 29.1433C143.535 29.1433 143.215 29.2198 142.937 29.3786C142.66 29.5375 142.436 29.7552 142.273 30.0436C142.11 30.3319 142.032 30.6614 142.032 31.0262C142.032 31.3911 142.11 31.7206 142.273 32.0148C142.436 32.3031 142.654 32.5267 142.937 32.6797C143.215 32.8386 143.535 32.9151 143.885 32.9151C144.235 32.9151 144.555 32.8386 144.833 32.6797Z" fill="#203164"/>
<path d="M153.02 29.0901C153.389 29.4431 153.576 29.9551 153.576 30.6318V33.4385H152.905V30.6965C152.905 30.1904 152.779 29.808 152.519 29.5432C152.259 29.2784 151.891 29.1489 151.414 29.1489C150.877 29.1489 150.454 29.3019 150.14 29.6138C149.826 29.9257 149.675 30.3493 149.675 30.8966V33.4385H149.005V28.5958H149.645V29.4902C149.826 29.196 150.08 28.9665 150.406 28.8018C150.732 28.637 151.106 28.5546 151.535 28.5546C152.157 28.5546 152.658 28.7312 153.026 29.0842L153.02 29.0901Z" fill="#203164"/>
<path d="M156.788 33.3209C156.42 33.2091 156.13 33.062 155.924 32.8914L156.226 32.3736C156.432 32.5324 156.697 32.6619 157.011 32.7678C157.325 32.8737 157.651 32.9208 157.995 32.9208C158.448 32.9208 158.786 32.8502 159.004 32.7149C159.221 32.5736 159.33 32.3795 159.33 32.1323C159.33 31.9558 159.269 31.8146 159.149 31.7145C159.028 31.6145 158.877 31.538 158.696 31.4851C158.515 31.4321 158.273 31.385 157.965 31.3321C157.561 31.2615 157.235 31.185 156.993 31.1085C156.746 31.032 156.54 30.9025 156.365 30.7142C156.19 30.5318 156.106 30.2729 156.106 29.9493C156.106 29.5433 156.281 29.2137 156.625 28.9548C156.969 28.6959 157.452 28.5665 158.068 28.5665C158.388 28.5665 158.708 28.6077 159.034 28.69C159.354 28.7724 159.62 28.8842 159.831 29.0196L159.535 29.5433C159.124 29.2667 158.635 29.1314 158.068 29.1314C157.639 29.1314 157.319 29.202 157.102 29.355C156.884 29.5021 156.776 29.6962 156.776 29.9375C156.776 30.1199 156.836 30.267 156.963 30.3788C157.084 30.4906 157.241 30.573 157.422 30.626C157.603 30.6789 157.857 30.7319 158.177 30.7848C158.575 30.8554 158.889 30.9319 159.131 31.0084C159.372 31.0849 159.577 31.2085 159.746 31.385C159.915 31.5615 160 31.8087 160 32.1206C160 32.5442 159.819 32.8796 159.456 33.1268C159.094 33.3739 158.593 33.4975 157.947 33.4975C157.543 33.4975 157.156 33.4386 156.788 33.3268V33.3209Z" fill="#203164"/>
<path d="M48.1993 21.0232C47.1849 21.0232 46.231 20.8349 45.3495 20.4525C44.468 20.0759 43.6891 19.5463 43.0189 18.8696C42.3487 18.1929 41.8234 17.4103 41.4491 16.5218C41.0747 15.6333 40.8876 14.6859 40.8876 13.6738C40.8876 12.6617 41.0747 11.7261 41.443 10.8435C41.8113 9.96085 42.3306 9.17825 43.0068 8.50744C43.677 7.83664 44.4559 7.30706 45.3374 6.9187C46.2189 6.53622 47.1789 6.34204 48.2053 6.34204C49.111 6.34204 49.9321 6.47149 50.6687 6.72452C51.4114 6.98342 52.1238 7.38944 52.8121 7.95432C52.9268 8.04259 52.9932 8.14262 53.0114 8.25442C53.0295 8.3721 53.0113 8.47802 52.963 8.58394C52.9147 8.68985 52.8363 8.76635 52.7396 8.81342C52.7155 8.91346 52.6491 8.98407 52.5525 9.03114C52.4559 9.07821 52.3351 9.09587 52.2023 9.0841C52.0695 9.07233 51.9426 9.01937 51.8159 8.91934C51.3268 8.50156 50.7955 8.19558 50.2159 7.99551C49.6363 7.79545 48.9661 7.69542 48.2053 7.69542C47.3902 7.69542 46.6295 7.85429 45.917 8.17204C45.2106 8.48979 44.5827 8.92522 44.0453 9.47246C43.5079 10.0197 43.0853 10.6552 42.7774 11.379C42.4695 12.1027 42.3185 12.8618 42.3185 13.6679C42.3185 14.4741 42.4695 15.2743 42.7774 15.9981C43.0853 16.7218 43.5079 17.3573 44.0453 17.9046C44.5827 18.4518 45.2106 18.8872 45.917 19.1991C46.6234 19.511 47.3842 19.664 48.2053 19.664C48.8936 19.664 49.5457 19.5522 50.1615 19.3345C50.7774 19.1167 51.357 18.799 51.9125 18.3812C52.0634 18.2576 52.2204 18.2106 52.3894 18.2341C52.5585 18.2576 52.7034 18.3341 52.8302 18.4518C52.957 18.5754 53.0174 18.7343 53.0174 18.9284C53.0174 19.0285 52.9993 19.1167 52.9691 19.1932C52.9389 19.2697 52.8846 19.358 52.8121 19.4404C52.1721 20.017 51.4597 20.423 50.6687 20.6584C49.8778 20.8938 49.0566 21.0173 48.2053 21.0173L48.1993 21.0232Z" fill="#203164"/>
<path d="M60.1601 20.9287C59.1578 20.9287 58.2582 20.711 57.4673 20.2697C56.6763 19.8284 56.0544 19.2223 55.6076 18.4573C55.1548 17.6865 54.9314 16.8156 54.9314 15.833C54.9314 14.8503 55.1548 13.9618 55.6076 13.1909C56.0604 12.4201 56.6823 11.814 57.4673 11.3786C58.2582 10.9373 59.1518 10.7195 60.1601 10.7195C61.1684 10.7195 62.0559 10.9373 62.8408 11.3786C63.6257 11.8199 64.2416 12.426 64.6944 13.1909C65.1472 13.9559 65.3767 14.8385 65.3888 15.833C65.3888 16.8097 65.1593 17.6865 64.7004 18.4573C64.2416 19.2282 63.6197 19.8342 62.8408 20.2697C62.0559 20.711 61.1623 20.9287 60.1601 20.9287ZM60.1601 19.6459C60.8846 19.6459 61.5367 19.4812 62.1163 19.1517C62.6959 18.8221 63.1427 18.3691 63.4688 17.7924C63.7948 17.2157 63.9578 16.5626 63.9578 15.833C63.9578 15.1033 63.7948 14.4443 63.4688 13.8617C63.1427 13.2792 62.6899 12.8261 62.1163 12.4966C61.5367 12.1671 60.8846 12.0023 60.1601 12.0023C59.4355 12.0023 58.7774 12.1671 58.2038 12.4966C57.6242 12.8261 57.1714 13.2792 56.8393 13.8617C56.5072 14.4443 56.3382 15.0974 56.3382 15.833C56.3382 16.5685 56.5012 17.2216 56.8393 17.7924C57.1714 18.3691 57.6242 18.8221 58.2038 19.1517C58.7835 19.4812 59.4355 19.6459 60.1601 19.6459Z" fill="#203164"/>
<path d="M67.2183 12.4086C67.019 12.4086 66.856 12.3498 66.7413 12.2321C66.6266 12.1144 66.5602 11.9732 66.5602 11.8025C66.5602 11.6201 66.6206 11.4671 66.7413 11.3553C66.8621 11.2435 67.019 11.1788 67.2183 11.1788H72.127C72.3262 11.1788 72.4892 11.2376 72.6039 11.3553C72.7186 11.473 72.7851 11.6201 72.7851 11.8025C72.7851 11.9732 72.7247 12.1203 72.6039 12.2321C72.4832 12.3439 72.3262 12.4086 72.127 12.4086H67.2183ZM69.1202 20.8407C68.933 20.8407 68.77 20.776 68.6311 20.6465C68.4923 20.5171 68.4258 20.3464 68.4258 20.1228V10.8316C68.4258 9.9784 68.5768 9.22522 68.8786 8.57795C69.1805 7.93069 69.6273 7.42464 70.213 7.0657C70.8047 6.70676 71.5232 6.52435 72.3745 6.52435C72.5858 6.52435 72.7609 6.5832 72.8998 6.70676C73.0387 6.83033 73.1051 6.98332 73.1051 7.16574C73.1051 7.34815 73.0387 7.50114 72.8998 7.62471C72.7609 7.74828 72.5858 7.80712 72.3745 7.80712C71.807 7.80712 71.3421 7.93069 70.9738 8.18371C70.6055 8.43673 70.3277 8.7839 70.1466 9.2311C69.9655 9.67831 69.8749 10.1902 69.8749 10.761V20.1287C69.8749 20.3464 69.8085 20.523 69.6756 20.6524C69.5428 20.7819 69.3556 20.8466 69.1202 20.8466V20.8407ZM74.1073 12.4086C73.9081 12.4086 73.7451 12.3498 73.6303 12.2321C73.5156 12.1144 73.4492 11.9732 73.4492 11.8025C73.4492 11.6201 73.5096 11.4671 73.6303 11.3553C73.7511 11.2435 73.9081 11.1788 74.1073 11.1788H79.016C79.2153 11.1788 79.3783 11.2376 79.493 11.3553C79.6077 11.473 79.6741 11.6201 79.6741 11.8025C79.6741 11.9732 79.6138 12.1203 79.493 12.2321C79.3722 12.3439 79.2153 12.4086 79.016 12.4086H74.1073ZM76.0092 20.8407C75.822 20.8407 75.659 20.776 75.5202 20.6465C75.3813 20.5171 75.3149 20.3464 75.3149 20.1228V10.8316C75.3149 9.9784 75.4658 9.22522 75.7677 8.57795C76.0696 7.93069 76.5164 7.42464 77.102 7.0657C77.6937 6.70676 78.4122 6.52435 79.2636 6.52435C79.4749 6.52435 79.65 6.5832 79.7888 6.70676C79.9277 6.83033 79.9941 6.98332 79.9941 7.16574C79.9941 7.34815 79.9277 7.50114 79.7888 7.62471C79.65 7.74828 79.4749 7.80712 79.2636 7.80712C78.7021 7.80712 78.2311 7.93069 77.8628 8.18371C77.4945 8.43673 77.2168 8.7839 77.0356 9.2311C76.8545 9.67831 76.7639 10.1902 76.7639 10.761V20.1287C76.7639 20.3464 76.6975 20.523 76.5647 20.6524C76.4319 20.7819 76.2447 20.8466 76.0092 20.8466V20.8407Z" fill="#203164"/>
<path d="M85.8928 20.9289C84.8785 20.9289 83.9789 20.7111 83.194 20.2757C82.4091 19.8403 81.7932 19.2401 81.3525 18.4692C80.9057 17.6984 80.6823 16.8217 80.6823 15.8272C80.6823 14.8328 80.8936 13.9443 81.3102 13.1793C81.7328 12.4144 82.3125 11.8142 83.0491 11.3728C83.7857 10.9315 84.643 10.7138 85.6091 10.7138C86.5751 10.7138 87.3962 10.9256 88.1026 11.3493C88.8091 11.773 89.3585 12.3555 89.7509 13.0969C90.1374 13.8442 90.3366 14.6916 90.3366 15.6448C90.3366 15.839 90.2762 15.9979 90.1495 16.1097C90.0227 16.2273 89.8596 16.2862 89.6604 16.2862H81.6664V15.1152H89.8113L89.0023 15.686C89.0143 14.974 88.8815 14.3385 88.6098 13.7795C88.3321 13.2146 87.9396 12.7792 87.4325 12.4614C86.9253 12.1437 86.3215 11.9848 85.6151 11.9848C84.9087 11.9848 84.2747 12.1496 83.7313 12.4791C83.194 12.8086 82.7774 13.2617 82.4815 13.8442C82.1857 14.4268 82.0407 15.0858 82.0407 15.8331C82.0407 16.5804 82.2098 17.2394 82.5419 17.8102C82.874 18.3869 83.3268 18.8399 83.9064 19.1695C84.486 19.499 85.1502 19.6637 85.8989 19.6637C86.3517 19.6637 86.8045 19.5872 87.2634 19.4343C87.7223 19.2813 88.0906 19.0871 88.3623 18.8576C88.5011 18.7458 88.6581 18.687 88.8332 18.6811C89.0083 18.6752 89.1592 18.7223 89.286 18.8164C89.449 18.9635 89.5336 19.1224 89.5396 19.293C89.5396 19.4637 89.4732 19.6108 89.3222 19.7344C88.9056 20.0756 88.3804 20.3581 87.7404 20.5876C87.1004 20.8112 86.4845 20.9289 85.8989 20.9289H85.8928Z" fill="#203164"/>
<path d="M97.0688 20.9289C96.0545 20.9289 95.1549 20.7111 94.37 20.2757C93.5851 19.8403 92.9692 19.2401 92.5285 18.4692C92.0817 17.6984 91.8583 16.8217 91.8583 15.8272C91.8583 14.8328 92.0696 13.9443 92.4862 13.1793C92.9089 12.4144 93.4885 11.8142 94.2251 11.3728C94.9617 10.9315 95.8191 10.7138 96.7851 10.7138C97.7511 10.7138 98.5723 10.9256 99.2787 11.3493C99.9851 11.773 100.535 12.3555 100.927 13.0969C101.313 13.8442 101.513 14.6916 101.513 15.6448C101.513 15.839 101.452 15.9979 101.325 16.1097C101.199 16.2273 101.036 16.2862 100.836 16.2862H92.8424V15.1152H100.987L100.178 15.686C100.19 14.974 100.058 14.3385 99.7858 13.7795C99.5081 13.2146 99.1157 12.7792 98.6085 12.4614C98.1013 12.1437 97.4975 11.9848 96.7911 11.9848C96.0847 11.9848 95.4507 12.1496 94.9073 12.4791C94.37 12.8086 93.9534 13.2617 93.6575 13.8442C93.3617 14.4268 93.2168 15.0858 93.2168 15.8331C93.2168 16.5804 93.3858 17.2394 93.7179 17.8102C94.05 18.3869 94.5028 18.8399 95.0824 19.1695C95.6621 19.499 96.3262 19.6637 97.0749 19.6637C97.5277 19.6637 97.9806 19.5872 98.4394 19.4343C98.8983 19.2813 99.2666 19.0871 99.5383 18.8576C99.6771 18.7458 99.8341 18.687 100.009 18.6811C100.184 18.6752 100.335 18.7223 100.462 18.8164C100.625 18.9635 100.71 19.1224 100.716 19.293C100.716 19.4637 100.649 19.6108 100.498 19.7344C100.082 20.0756 99.5564 20.3581 98.9164 20.5876C98.2764 20.8112 97.6605 20.9289 97.0749 20.9289H97.0688Z" fill="#203164"/>
<path d="M104.592 20.8407C104.356 20.8407 104.157 20.776 104 20.6465C103.843 20.5171 103.765 20.3464 103.765 20.1228V7.23635C103.765 7.0304 103.831 6.85975 103.97 6.72442C104.109 6.58908 104.284 6.52435 104.495 6.52435H109.066C109.82 6.52435 110.497 6.67734 111.106 6.98921C111.716 7.30107 112.199 7.72474 112.556 8.26609C112.912 8.80155 113.093 9.42528 113.093 10.1373C113.093 10.7963 112.912 11.3847 112.549 11.8967C112.187 12.4086 111.71 12.8028 111.119 13.0676C111.958 13.2853 112.634 13.6972 113.147 14.3033C113.66 14.9094 113.92 15.6743 113.92 16.6041C113.92 17.4337 113.727 18.1693 113.334 18.8048C112.942 19.4403 112.411 19.9404 111.728 20.2994C111.046 20.6583 110.261 20.8407 109.386 20.8407H104.592ZM105.232 12.5027H109.072C109.826 12.5027 110.442 12.2968 110.931 11.879C111.42 11.4612 111.662 10.8846 111.662 10.1373C111.662 9.38998 111.414 8.84863 110.931 8.47204C110.442 8.09545 109.82 7.90127 109.072 7.90127H105.232V12.5027ZM105.232 19.4697H109.386C109.989 19.4697 110.521 19.352 110.986 19.1225C111.451 18.893 111.813 18.5576 112.078 18.134C112.344 17.7044 112.471 17.1984 112.471 16.6099C112.471 16.0627 112.338 15.5802 112.078 15.1683C111.813 14.7564 111.451 14.4387 110.986 14.2151C110.521 13.9915 109.989 13.8738 109.386 13.8738H105.232V19.4638V19.4697Z" fill="#203164"/>
<path d="M120.936 20.9289C119.922 20.9289 119.022 20.7111 118.237 20.2757C117.452 19.8403 116.836 19.2401 116.396 18.4692C115.949 17.6984 115.725 16.8217 115.725 15.8272C115.725 14.8328 115.937 13.9443 116.353 13.1793C116.776 12.4144 117.356 11.8142 118.092 11.3728C118.829 10.9315 119.686 10.7138 120.652 10.7138C121.618 10.7138 122.439 10.9256 123.146 11.3493C123.852 11.773 124.402 12.3555 124.794 13.0969C125.181 13.8442 125.38 14.6916 125.38 15.6448C125.38 15.839 125.319 15.9979 125.193 16.1097C125.066 16.2273 124.903 16.2862 124.704 16.2862H116.71V15.1152H124.855L124.045 15.686C124.058 14.974 123.925 14.3385 123.653 13.7795C123.375 13.2146 122.983 12.7792 122.476 12.4614C121.968 12.1437 121.365 11.9848 120.658 11.9848C119.952 11.9848 119.318 12.1496 118.774 12.4791C118.237 12.8086 117.821 13.2617 117.525 13.8442C117.229 14.4268 117.084 15.0858 117.084 15.8331C117.084 16.5804 117.253 17.2394 117.585 17.8102C117.917 18.3869 118.37 18.8399 118.95 19.1695C119.529 19.499 120.193 19.6637 120.942 19.6637C121.395 19.6637 121.848 19.5872 122.307 19.4343C122.765 19.2813 123.134 19.0871 123.405 18.8576C123.544 18.7458 123.701 18.687 123.876 18.6811C124.051 18.6752 124.202 18.7223 124.329 18.8164C124.492 18.9635 124.577 19.1224 124.583 19.293C124.583 19.4637 124.516 19.6108 124.365 19.7344C123.949 20.0756 123.424 20.3581 122.784 20.5876C122.144 20.8112 121.528 20.9289 120.942 20.9289H120.936Z" fill="#203164"/>
<path d="M131.979 20.9289C131.013 20.9289 130.149 20.7053 129.383 20.258C128.616 19.8108 128.012 19.2048 127.565 18.4339C127.118 17.6631 126.895 16.7981 126.895 15.8331C126.895 14.8681 127.124 13.9796 127.583 13.2087C128.042 12.4379 128.664 11.8318 129.455 11.3846C130.246 10.9374 131.134 10.7138 132.124 10.7138C133.114 10.7138 134.001 10.9374 134.786 11.3846C135.571 11.8318 136.193 12.4379 136.646 13.2087C137.099 13.9796 137.34 14.8504 137.352 15.8331L136.773 16.2744C136.773 17.1571 136.561 17.9455 136.145 18.6517C135.722 19.3519 135.155 19.9109 134.436 20.3169C133.718 20.7288 132.897 20.9289 131.979 20.9289ZM132.13 19.6461C132.854 19.6461 133.506 19.4813 134.074 19.1518C134.641 18.8223 135.094 18.3692 135.426 17.7867C135.758 17.2041 135.927 16.5569 135.927 15.8331C135.927 15.1093 135.758 14.4444 135.426 13.8736C135.094 13.297 134.641 12.8439 134.074 12.5085C133.5 12.1731 132.854 12.0025 132.13 12.0025C131.405 12.0025 130.771 12.1731 130.192 12.5085C129.612 12.8439 129.159 13.297 128.821 13.8736C128.483 14.4503 128.314 15.1035 128.314 15.8331C128.314 16.5627 128.483 17.2041 128.821 17.7867C129.159 18.3692 129.618 18.8223 130.192 19.1518C130.771 19.4813 131.411 19.6461 132.13 19.6461ZM136.628 20.8406C136.417 20.8406 136.241 20.7759 136.103 20.6464C135.964 20.517 135.897 20.3522 135.897 20.1404V17.0041L136.254 15.5565L137.364 15.8331V20.1404C137.364 20.3463 137.298 20.517 137.159 20.6464C137.02 20.7759 136.845 20.8406 136.634 20.8406H136.628Z" fill="#203164"/>
<path d="M140.534 20.8406C140.311 20.8406 140.13 20.7759 139.997 20.6464C139.864 20.517 139.798 20.3522 139.798 20.1404V11.5259C139.798 11.3081 139.864 11.1316 139.997 11.0022C140.13 10.8727 140.305 10.808 140.534 10.808C140.746 10.808 140.921 10.8727 141.054 11.0022C141.187 11.1316 141.253 11.3023 141.253 11.5259V20.1404C141.253 20.3463 141.187 20.517 141.054 20.6464C140.921 20.7759 140.752 20.8406 140.534 20.8406ZM148.625 20.8406C148.414 20.8406 148.239 20.7759 148.1 20.6405C147.961 20.5052 147.894 20.3405 147.894 20.1463V15.38C147.894 14.621 147.75 13.9972 147.454 13.5088C147.158 13.0205 146.759 12.6556 146.252 12.4085C145.745 12.1614 145.171 12.0437 144.531 12.0437C143.891 12.0437 143.36 12.1614 142.865 12.3908C142.37 12.6203 141.977 12.9381 141.688 13.3441C141.398 13.7501 141.253 14.2032 141.253 14.721H140.22C140.245 13.9502 140.456 13.2617 140.86 12.6615C141.259 12.0554 141.796 11.5788 142.461 11.2316C143.125 10.8845 143.867 10.7079 144.682 10.7079C145.57 10.7079 146.367 10.8904 147.073 11.2493C147.774 11.6082 148.329 12.1378 148.74 12.838C149.144 13.5324 149.35 14.3856 149.35 15.3859V20.1522C149.35 20.3463 149.283 20.5111 149.144 20.6464C149.005 20.7818 148.836 20.8465 148.637 20.8465L148.625 20.8406Z" fill="#203164"/>
<path d="M155.756 20.929C155.013 20.929 154.282 20.8054 153.558 20.5642C152.827 20.317 152.242 19.9522 151.789 19.4638C151.65 19.3167 151.596 19.1519 151.62 18.9695C151.644 18.7871 151.74 18.6282 151.904 18.4929C152.079 18.3693 152.26 18.3223 152.447 18.3458C152.634 18.3693 152.791 18.4517 152.918 18.5871C153.22 18.9283 153.618 19.1931 154.113 19.3755C154.608 19.558 155.158 19.6521 155.762 19.6521C156.691 19.6521 157.362 19.4991 157.772 19.1873C158.183 18.8754 158.4 18.4988 158.412 18.0575C158.412 17.6162 158.201 17.2513 157.772 16.9689C157.343 16.6864 156.643 16.457 155.665 16.2981C154.397 16.1039 153.473 15.7626 152.882 15.2742C152.29 14.7858 152 14.2033 152 13.5325C152 12.9088 152.169 12.3909 152.507 11.9732C152.845 11.5554 153.298 11.2435 153.86 11.0376C154.421 10.8316 155.043 10.7257 155.719 10.7257C156.559 10.7257 157.283 10.8669 157.893 11.1494C158.503 11.4318 158.992 11.8084 159.372 12.285C159.499 12.4439 159.547 12.6087 159.523 12.7793C159.499 12.95 159.396 13.0912 159.221 13.203C159.07 13.2912 158.901 13.3148 158.702 13.2854C158.509 13.2559 158.34 13.1677 158.201 13.0206C157.887 12.6675 157.525 12.4086 157.108 12.2438C156.697 12.0791 156.22 11.9967 155.677 11.9967C154.989 11.9967 154.433 12.132 154.023 12.4086C153.612 12.6852 153.401 13.0264 153.401 13.4442C153.401 13.7267 153.479 13.9679 153.636 14.1798C153.793 14.3916 154.065 14.574 154.445 14.727C154.826 14.88 155.363 15.0212 156.051 15.133C156.993 15.2801 157.736 15.4978 158.279 15.7862C158.823 16.0745 159.215 16.4099 159.445 16.7924C159.674 17.1748 159.795 17.5985 159.795 18.0457C159.795 18.6224 159.62 19.1225 159.276 19.558C158.931 19.9934 158.454 20.3288 157.845 20.5759C157.235 20.8231 156.534 20.9408 155.75 20.9408L155.756 20.929Z" fill="#203164"/>
</svg>
