<svg width="24" height="24" viewBox="0 0 24 24" fill="none" xmlns="http://www.w3.org/2000/svg">
<path d="M19.35 20.4251L13.325 14.4001C12.825 14.8334 12.2417 15.1709 11.575 15.4126C10.9083 15.6543 10.2 15.7751 9.45 15.7751C7.65 15.7751 6.125 15.1501 4.875 13.9001C3.625 12.6501 3 11.1418 3 9.3751C3 7.60843 3.625 6.1001 4.875 4.8501C6.125 3.6001 7.64167 2.9751 9.425 2.9751C11.1917 2.9751 12.6958 3.6001 13.9375 4.8501C15.1792 6.1001 15.8 7.60843 15.8 9.3751C15.8 10.0918 15.6833 10.7834 15.45 11.4501C15.2167 12.1168 14.8667 12.7418 14.4 13.3251L20.475 19.3501C20.625 19.4834 20.7 19.6543 20.7 19.8626C20.7 20.0709 20.6167 20.2584 20.45 20.4251C20.3 20.5751 20.1167 20.6501 19.9 20.6501C19.6833 20.6501 19.5 20.5751 19.35 20.4251ZM9.425 14.2751C10.775 14.2751 11.925 13.7959 12.875 12.8376C13.825 11.8793 14.3 10.7251 14.3 9.3751C14.3 8.0251 13.825 6.87093 12.875 5.9126C11.925 4.95426 10.775 4.4751 9.425 4.4751C8.05833 4.4751 6.89583 4.95426 5.9375 5.9126C4.97917 6.87093 4.5 8.0251 4.5 9.3751C4.5 10.7251 4.97917 11.8793 5.9375 12.8376C6.89583 13.7959 8.05833 14.2751 9.425 14.2751Z" fill="#252733"/>
</svg>
