<svg width="18" height="18" viewBox="0 0 18 18" fill="none" xmlns="http://www.w3.org/2000/svg">
<path d="M17.2462 0.725402C17.1862 0.664838 17.1133 0.618683 17.0329 0.590425C16.9525 0.562166 16.8668 0.552541 16.7821 0.562277C12.0523 1.01393 7.62203 3.07961 4.23554 6.41228L0.823979 7.16321C0.724946 7.18422 0.633416 7.23156 0.559044 7.30024C0.484671 7.36892 0.430214 7.45641 0.401415 7.55346C0.372615 7.65051 0.370542 7.75354 0.395414 7.85167C0.420286 7.94981 0.47118 8.03941 0.542729 8.11103L9.93085 17.4963C10.0025 17.5679 10.0921 17.6188 10.1902 17.6437C10.2883 17.6685 10.3914 17.6665 10.4884 17.6377C10.5855 17.6089 10.673 17.5544 10.7416 17.48C10.8103 17.4057 10.8577 17.3141 10.8787 17.2151L11.6324 13.8007C14.9648 10.3947 17.0073 5.93471 17.4093 1.18665C17.4186 1.10245 17.4087 1.01723 17.3805 0.937364C17.3523 0.857496 17.3063 0.785039 17.2462 0.725402ZM10.7212 13.1285C10.6444 13.2056 10.5917 13.3033 10.5693 13.4098L10.0068 15.9804L2.0671 8.04072L4.59835 7.47822C4.73506 7.44765 4.86005 7.37832 4.95835 7.27853C7.9998 4.25073 11.9571 2.31362 16.214 1.76884C15.7088 6.06426 13.7743 10.0651 10.7212 13.1285Z" fill="#4CBD97"/>
<path d="M11.5677 8.41199C14.1159 8.33887 14.1299 4.62074 11.5677 4.54199C8.99992 4.62074 9.01679 8.33887 11.5677 8.41199ZM11.0052 5.90324C11.1574 5.75145 11.3636 5.66632 11.5786 5.66658C11.7935 5.66685 11.9995 5.75248 12.1513 5.90465C12.3031 6.05682 12.3882 6.26305 12.388 6.47799C12.3877 6.69292 12.3021 6.89895 12.1499 7.05074C11.9981 7.20403 11.7917 7.29074 11.5759 7.29179C11.3602 7.29285 11.1529 7.20816 10.9996 7.05637C10.8463 6.90457 10.7596 6.6981 10.7586 6.48238C10.7575 6.26665 10.8422 6.05934 10.994 5.90605L11.0052 5.90324Z" fill="#4CBD97"/>
<path d="M2.74489 12.2592C2.67503 12.1891 2.58791 12.1387 2.49234 12.113C2.39676 12.0873 2.2961 12.0873 2.20053 12.113C2.10495 12.1387 2.01784 12.1891 1.948 12.2592C1.87815 12.3293 1.82803 12.4166 1.8027 12.5123L0.714265 16.5735C0.688433 16.6692 0.688343 16.7701 0.714003 16.8658C0.739662 16.9615 0.790162 17.0488 0.860388 17.1187C0.930613 17.1887 1.01807 17.2388 1.11391 17.2641C1.20975 17.2893 1.31056 17.2888 1.40614 17.2626L5.46739 16.1742C5.56306 16.1488 5.65035 16.0987 5.72046 16.0289C5.79056 15.959 5.841 15.8719 5.86668 15.7764C5.89235 15.6808 5.89236 15.5801 5.8667 15.4845C5.84104 15.389 5.79061 15.3018 5.72052 15.232L2.74489 12.2592ZM2.05302 15.9154L2.63802 13.7357L4.2327 15.3304L2.05302 15.9154Z" fill="#4CBD97"/>
</svg>
