<svg width="256" height="256" viewBox="0 0 256 256" fill="none" xmlns="http://www.w3.org/2000/svg">
<path d="M207.8 111.999C207.88 90.8961 199.587 70.6225 184.739 55.6253C169.892 40.6281 149.703 32.1316 128.6 31.9994H128C117.507 32.0125 107.12 34.0922 97.431 38.1197C87.7421 42.1471 78.9414 48.0436 71.5313 55.4722C64.1211 62.9009 58.2468 71.7164 54.2436 81.4154C50.2403 91.1143 48.1867 101.507 48.1998 111.999C48.1998 146.299 41.0998 165.699 35.1998 175.899C33.7812 178.341 33.0257 181.112 33.0081 183.936C32.9906 186.76 33.7117 189.54 35.0998 191.999C36.4999 194.445 38.5249 196.475 40.9673 197.88C43.4097 199.286 46.1818 200.017 48.9998 199.999H87.9998C87.9998 210.608 92.2141 220.782 99.7155 228.284C107.217 235.785 117.391 239.999 128 239.999C138.608 239.999 148.783 235.785 156.284 228.284C163.786 220.782 168 210.608 168 199.999H207C209.818 200.017 212.59 199.286 215.032 197.88C217.475 196.475 219.5 194.445 220.9 191.999C222.288 189.54 223.009 186.76 222.992 183.936C222.974 181.112 222.218 178.341 220.8 175.899C214.9 165.699 207.8 146.299 207.8 111.999ZM128 223.999C121.643 223.973 115.554 221.436 111.058 216.941C106.563 212.446 104.026 206.356 104 199.999H152C151.973 206.356 149.436 212.446 144.941 216.941C140.446 221.436 134.357 223.973 128 223.999ZM48.9998 183.999C55.8998 172.099 64.1998 149.899 64.1998 111.999C64.1735 103.604 65.8043 95.2864 68.9988 87.5228C72.1932 79.7591 76.8885 72.7022 82.8155 66.7566C88.7425 60.811 95.7847 56.0937 103.538 52.8749C111.292 49.6562 119.605 47.9993 128 47.9994H128.5C136.848 48.0192 145.108 49.7005 152.8 52.9454C160.492 56.1903 167.46 60.9338 173.3 66.8994C179.198 72.8309 183.868 79.8676 187.042 87.6066C190.217 95.3456 191.833 103.635 191.8 111.999C191.8 149.899 200.1 172.099 207 183.999H48.9998ZM224.9 73.2994C223.796 73.7909 222.607 74.0626 221.4 74.0994C219.896 74.1125 218.419 73.696 217.144 72.8989C215.868 72.1017 214.847 70.957 214.2 69.5994C206.302 53.708 194.196 40.2877 179.2 30.7994C178.307 30.2413 177.533 29.5127 176.921 28.6554C176.31 27.798 175.873 26.8286 175.636 25.8025C175.4 24.7764 175.367 23.7137 175.541 22.6751C175.715 21.6365 176.092 20.6424 176.65 19.7494C177.208 18.8564 177.936 18.0821 178.794 17.4706C179.651 16.8592 180.621 16.4226 181.647 16.1859C182.673 15.9491 183.735 15.9167 184.774 16.0906C185.813 16.2645 186.807 16.6413 187.7 17.1994C205.251 28.2512 219.379 43.9716 228.5 62.5994C229.437 64.4964 229.584 66.6874 228.909 68.6927C228.234 70.698 226.793 72.3544 224.9 73.2994ZM34.5998 74.0994C33.3923 74.0626 32.2035 73.7909 31.0998 73.2994C29.2068 72.3544 27.7652 70.698 27.0905 68.6927C26.4158 66.6874 26.563 64.4964 27.4998 62.5994C36.621 43.9716 50.7485 28.2512 68.2998 17.1994C70.1033 16.0722 72.2807 15.7076 74.3529 16.1859C75.379 16.4226 76.3484 16.8592 77.2058 17.4706C78.0632 18.0821 78.7917 18.8564 79.3498 19.7494C79.9079 20.6424 80.2847 21.6365 80.4586 22.6751C80.6325 23.7137 80.6001 24.7764 80.3634 25.8025C80.1266 26.8286 79.69 27.798 79.0786 28.6554C78.4671 29.5127 77.6928 30.2413 76.7998 30.7994C61.8036 40.2877 49.6977 53.708 41.7998 69.5994C41.1526 70.957 40.1312 72.1017 38.8558 72.8989C37.5803 73.696 36.1038 74.1125 34.5998 74.0994Z" fill="black"/>
</svg>
