<svg width="20" height="20" viewBox="0 0 20 20" fill="none" xmlns="http://www.w3.org/2000/svg">
<g clip-path="url(#clip0_3832_35492)">
<path d="M20.05 4.71406C20.0553 3.54107 19.1012 2.55391 17.9265 2.55391H16.721V1.60886C16.721 1.29471 16.4642 1.03789 16.15 1.03789C15.8359 1.03789 15.5791 1.29471 15.5791 1.60886V2.55391H10.5736V1.60886C10.5736 1.29471 10.3168 1.03789 10.0026 1.03789C9.68846 1.03789 9.43164 1.29471 9.43164 1.60886V2.55391H4.37404V1.60886C4.37404 1.29471 4.11722 1.03789 3.80307 1.03789C3.48893 1.03789 3.23211 1.29471 3.23211 1.60886V2.55391H2.07867C0.903957 2.55391 -0.05 3.54106 -0.05 4.71383V16.8264C-0.05 18.0052 0.899548 18.9602 2.07867 18.9602H17.9213C19.1004 18.9602 20.05 18.0052 20.05 16.8316V4.71406ZM20.05 4.71406L20 4.71383H20.05V4.71406ZM18.9133 16.8264C18.9133 17.372 18.477 17.8132 17.9315 17.8183C17.9314 17.8183 17.9314 17.8183 17.9313 17.8183L17.9265 17.8183H2.07867C1.53321 17.8183 1.09194 17.377 1.09194 16.8316V16.8264V4.71383C1.09194 4.16139 1.53496 3.69585 2.07867 3.69585H3.23211V4.40125C3.23211 4.7154 3.48893 4.97222 3.80307 4.97222C4.11722 4.97222 4.37404 4.7154 4.37404 4.40125V3.69585H9.43164V4.40125C9.43164 4.7154 9.68846 4.97222 10.0026 4.97222C10.3168 4.97222 10.5736 4.7154 10.5736 4.40125V3.69585H15.5791V4.40125C15.5791 4.7154 15.8359 4.97222 16.15 4.97222C16.4642 4.97222 16.721 4.7154 16.721 4.40125V3.69585H17.9265C18.4751 3.69585 18.9133 4.16627 18.9133 4.71383V16.8264Z" fill="#4C9CFF" stroke="#4C9CFF" stroke-width="0.1"/>
<path d="M8.63237 6.9832H7.72068C7.40653 6.9832 7.14971 7.24002 7.14971 7.55417C7.14971 7.86832 7.40653 8.12514 7.72068 8.12514H8.63237C8.94652 8.12514 9.20334 7.86832 9.20334 7.55417C9.20334 7.24002 8.94652 6.9832 8.63237 6.9832Z" fill="#4C9CFF" stroke="#4C9CFF" stroke-width="0.1"/>
<path d="M12.2583 6.9832H11.3467C11.0325 6.9832 10.7757 7.24002 10.7757 7.55417C10.7757 7.86832 11.0325 8.12514 11.3467 8.12514H12.2583C12.5725 8.12514 12.8293 7.86832 12.8293 7.55417C12.8293 7.24035 12.578 6.9832 12.2583 6.9832Z" fill="#4C9CFF" stroke="#4C9CFF" stroke-width="0.1"/>
<path d="M15.9156 6.9832H15.0039C14.6897 6.9832 14.4329 7.24002 14.4329 7.55417C14.4329 7.86832 14.6897 8.12514 15.0039 8.12514H15.9156C16.2297 8.12514 16.4865 7.86832 16.4865 7.55417C16.4865 7.24002 16.2297 6.9832 15.9156 6.9832Z" fill="#4C9CFF" stroke="#4C9CFF" stroke-width="0.1"/>
<path d="M8.63237 10.577H7.72068C7.40653 10.577 7.14971 10.8338 7.14971 11.1479C7.14971 11.4621 7.40653 11.7189 7.72068 11.7189H8.63237C8.94652 11.7189 9.20334 11.4621 9.20334 11.1479C9.20334 10.8338 8.94652 10.577 8.63237 10.577Z" fill="#4C9CFF" stroke="#4C9CFF" stroke-width="0.1"/>
<path d="M4.98035 10.577H4.06345C3.7493 10.577 3.49248 10.8338 3.49248 11.1479C3.49248 11.4621 3.7493 11.7189 4.06345 11.7189H4.97515C5.28929 11.7189 5.54611 11.4621 5.54611 11.1479C5.54611 10.8344 5.29515 10.577 4.98035 10.577Z" fill="#4C9CFF" stroke="#4C9CFF" stroke-width="0.1"/>
<path d="M12.2583 10.577H11.3467C11.0325 10.577 10.7757 10.8338 10.7757 11.1479C10.7757 11.4621 11.0325 11.7189 11.3467 11.7189H12.2583C12.5725 11.7189 12.8293 11.4621 12.8293 11.1479C12.8293 10.8341 12.578 10.577 12.2583 10.577Z" fill="#4C9CFF" stroke="#4C9CFF" stroke-width="0.1"/>
<path d="M15.9156 10.577H15.0039C14.6897 10.577 14.4329 10.8338 14.4329 11.1479C14.4329 11.4621 14.6897 11.7189 15.0039 11.7189H15.9156C16.2297 11.7189 16.4865 11.4621 16.4865 11.1479C16.4865 10.8338 16.2297 10.577 15.9156 10.577Z" fill="#4C9CFF" stroke="#4C9CFF" stroke-width="0.1"/>
<path d="M8.63237 14.1199H7.72068C7.40653 14.1199 7.14971 14.3767 7.14971 14.6909C7.14971 15.005 7.40653 15.2619 7.72068 15.2619H8.63237C8.94652 15.2619 9.20334 15.005 9.20334 14.6909C9.20334 14.3767 8.94652 14.1199 8.63237 14.1199Z" fill="#4C9CFF" stroke="#4C9CFF" stroke-width="0.1"/>
<path d="M4.98035 14.1199H4.06345C3.7493 14.1199 3.49248 14.3767 3.49248 14.6909C3.49248 15.005 3.7493 15.2619 4.06345 15.2619H4.97515C5.28929 15.2619 5.54611 15.005 5.54611 14.6909C5.54611 14.3774 5.29515 14.1199 4.98035 14.1199Z" fill="#4C9CFF" stroke="#4C9CFF" stroke-width="0.1"/>
<path d="M12.2583 14.1199H11.3467C11.0325 14.1199 10.7757 14.3767 10.7757 14.6909C10.7757 15.005 11.0325 15.2619 11.3467 15.2619H12.2583C12.5725 15.2619 12.8293 15.005 12.8293 14.6909C12.8293 14.3771 12.578 14.1199 12.2583 14.1199Z" fill="#4C9CFF" stroke="#4C9CFF" stroke-width="0.1"/>
</g>
<defs>
<clipPath id="clip0_3832_35492">
<rect width="20" height="20" fill="white"/>
</clipPath>
</defs>
</svg>
