<svg width="24" height="24" viewBox="0 0 24 24" fill="none" xmlns="http://www.w3.org/2000/svg">
<path d="M11.9999 15.0751C11.8999 15.0751 11.8082 15.0584 11.7249 15.0251C11.6416 14.9917 11.5582 14.9334 11.4749 14.8501L6.52491 9.90006C6.39157 9.76672 6.32907 9.58756 6.33741 9.36256C6.34574 9.13756 6.41657 8.95839 6.54991 8.82506C6.71657 8.65839 6.89574 8.58756 7.08741 8.61256C7.27907 8.63756 7.44991 8.71672 7.59991 8.85006L11.9999 13.2501L16.3999 8.85006C16.5332 8.71672 16.7124 8.64172 16.9374 8.62506C17.1624 8.60839 17.3416 8.68339 17.4749 8.85006C17.6416 8.98339 17.7124 9.15839 17.6874 9.37506C17.6624 9.59172 17.5832 9.77506 17.4499 9.92506L12.5249 14.8501C12.4416 14.9334 12.3582 14.9917 12.2749 15.0251C12.1916 15.0584 12.0999 15.0751 11.9999 15.0751Z" fill="#04103B"/>
</svg>
