<svg width="8" height="12" viewBox="0 0 8 12" fill="none" xmlns="http://www.w3.org/2000/svg">
<path d="M7.07506 5.99985C7.07506 6.09985 7.05839 6.19152 7.02506 6.27485C6.99172 6.35818 6.93339 6.44152 6.85006 6.52485L1.90006 11.4749C1.76672 11.6082 1.58756 11.6707 1.36256 11.6624C1.13756 11.654 0.95839 11.5832 0.825057 11.4499C0.65839 11.2832 0.587557 11.104 0.612557 10.9124C0.637557 10.7207 0.716724 10.5499 0.850057 10.3999L5.25006 5.99985L0.850057 1.59985C0.716724 1.46652 0.641723 1.28735 0.625057 1.06235C0.60839 0.83735 0.68339 0.658183 0.850057 0.52485C0.98339 0.358183 1.15839 0.287351 1.37506 0.31235C1.59172 0.33735 1.77506 0.416516 1.92506 0.549849L6.85006 5.47485C6.93339 5.55818 6.99172 5.64152 7.02506 5.72485C7.05839 5.80818 7.07506 5.89985 7.07506 5.99985Z" fill="#04103B"/>
</svg>
