<svg width="18" height="18" viewBox="0 0 18 18" fill="none" xmlns="http://www.w3.org/2000/svg">
<g opacity="0.8" clip-path="url(#clip0_2063_38190)">
<path d="M16.6014 5.7886C15.7635 3.81082 14.1892 2.2365 12.2114 1.39864C11.1948 0.970535 10.1029 0.75 8.99988 0.75C7.89684 0.75 6.80493 0.970535 5.78836 1.39864C3.81057 2.2365 2.23625 3.81082 1.39839 5.7886C0.970291 6.80517 0.749756 7.89708 0.749756 9.00012C0.749756 10.1032 0.970291 11.1951 1.39839 12.2116C2.23625 14.1894 3.81057 15.7637 5.78836 16.6016C6.80493 17.0297 7.89684 17.2502 8.99988 17.2502C10.1029 17.2502 11.1948 17.0297 12.2114 16.6016C14.1892 15.7637 15.7635 14.1894 16.6014 12.2116C17.0295 11.1951 17.25 10.1032 17.25 9.00012C17.25 7.89708 17.0295 6.80517 16.6014 5.7886ZM8.99988 15.7501C5.27789 15.7501 2.24988 12.7221 2.24988 9.00012C2.24848 7.46906 2.77018 5.98347 3.72855 4.78946L13.2105 14.2715C12.0165 15.2298 10.5309 15.7515 8.99988 15.7501ZM14.2712 13.2108L4.78921 3.72879C5.98323 2.77042 7.46882 2.24872 8.99988 2.25012C12.7219 2.25012 15.7499 5.27813 15.7499 9.00012C15.7513 10.5312 15.2296 12.0168 14.2712 13.2108Z" fill="#FF0000"/>
</g>
<defs>
<clipPath id="clip0_2063_38190">
<rect width="18" height="18" fill="white"/>
</clipPath>
</defs>
</svg>
