<svg width="40" height="40" viewBox="0 0 40 40" fill="none" xmlns="http://www.w3.org/2000/svg">
<path d="M20 21.958L11.458 30.5C11.1807 30.778 10.8543 30.917 10.479 30.917C10.1043 30.917 9.77801 30.778 9.50001 30.5C9.22201 30.222 9.08301 29.8957 9.08301 29.521C9.08301 29.1457 9.22201 28.8193 9.50001 28.542L18.042 20L9.50001 11.458C9.22201 11.1807 9.08301 10.8543 9.08301 10.479C9.08301 10.1043 9.22201 9.77801 9.50001 9.50001C9.77801 9.22201 10.1043 9.08301 10.479 9.08301C10.8543 9.08301 11.1807 9.22201 11.458 9.50001L20 18.042L28.542 9.50001C28.8193 9.22201 29.1457 9.08301 29.521 9.08301C29.8957 9.08301 30.222 9.22201 30.5 9.50001C30.778 9.77801 30.917 10.1043 30.917 10.479C30.917 10.8543 30.778 11.1807 30.5 11.458L21.958 20L30.5 28.542C30.778 28.8193 30.917 29.1457 30.917 29.521C30.917 29.8957 30.778 30.222 30.5 30.5C30.222 30.778 29.8957 30.917 29.521 30.917C29.1457 30.917 28.8193 30.778 28.542 30.5L20 21.958Z" fill="black"/>
</svg>
