<svg width="21" height="21" viewBox="0 0 21 21" fill="none" xmlns="http://www.w3.org/2000/svg">
<path d="M1.5 20.725C1.1 20.725 0.75 20.575 0.45 20.275C0.15 19.975 0 19.625 0 19.225V4.225C0 3.825 0.15 3.475 0.45 3.175C0.75 2.875 1.1 2.725 1.5 2.725H11.625L10.125 4.225H1.5V19.225H16.5V10.525L18 9.025V19.225C18 19.625 17.85 19.975 17.55 20.275C17.25 20.575 16.9 20.725 16.5 20.725H1.5ZM13.55 2.925L14.625 3.975L7.5 11.075V13.225H9.625L16.775 6.075L17.825 7.125L10.7 14.275C10.5667 14.4083 10.4042 14.5167 10.2125 14.6C10.0208 14.6833 9.825 14.725 9.625 14.725H6.75C6.53333 14.725 6.35417 14.6542 6.2125 14.5125C6.07083 14.3708 6 14.1917 6 13.975V11.1C6 10.9 6.04167 10.7042 6.125 10.5125C6.20833 10.3208 6.31667 10.1583 6.45 10.025L13.55 2.925ZM17.825 7.125L13.55 2.925L16.05 0.425C16.3333 0.141667 16.6875 0 17.1125 0C17.5375 0 17.8917 0.15 18.175 0.45L20.275 2.575C20.5583 2.875 20.7 3.22917 20.7 3.6375C20.7 4.04583 20.55 4.39167 20.25 4.675L17.825 7.125Z" fill="#4C9CFF"/>
</svg>
