<svg width="21" height="22" viewBox="0 0 21 22" fill="none" xmlns="http://www.w3.org/2000/svg">
<path d="M1.5 21.7C1.1 21.7 0.75 21.55 0.45 21.25C0.15 20.95 0 20.6 0 20.2V5.20001C0 4.80001 0.15 4.45001 0.45 4.15001C0.75 3.85001 1.1 3.70001 1.5 3.70001H11.625L10.125 5.20001H1.5V20.2H16.5V11.5L18 10V20.2C18 20.6 17.85 20.95 17.55 21.25C17.25 21.55 16.9 21.7 16.5 21.7H1.5ZM13.55 3.90001L14.625 4.95001L7.5 12.05V14.2H9.625L16.775 7.05001L17.825 8.10001L10.7 15.25C10.5667 15.3833 10.4042 15.4917 10.2125 15.575C10.0208 15.6583 9.825 15.7 9.625 15.7H6.75C6.53333 15.7 6.35417 15.6292 6.2125 15.4875C6.07083 15.3458 6 15.1667 6 14.95V12.075C6 11.875 6.04167 11.6792 6.125 11.4875C6.20833 11.2958 6.31667 11.1333 6.45 11L13.55 3.90001ZM17.825 8.10001L13.55 3.90001L16.05 1.40001C16.3333 1.11667 16.6875 0.975006 17.1125 0.975006C17.5375 0.975006 17.8917 1.12501 18.175 1.42501L20.275 3.55001C20.5583 3.85001 20.7 4.20417 20.7 4.61251C20.7 5.02084 20.55 5.36667 20.25 5.65001L17.825 8.10001Z" fill="#252733"/>
</svg>
