<svg width="21" height="22" viewBox="0 0 21 22" fill="none" xmlns="http://www.w3.org/2000/svg">
<path d="M1.5 21.7001C1.1 21.7001 0.75 21.5501 0.45 21.2501C0.15 20.9501 0 20.6001 0 20.2001V5.2001C0 4.8001 0.15 4.4501 0.45 4.1501C0.75 3.8501 1.1 3.7001 1.5 3.7001H11.625L10.125 5.2001H1.5V20.2001H16.5V11.5001L18 10.0001V20.2001C18 20.6001 17.85 20.9501 17.55 21.2501C17.25 21.5501 16.9 21.7001 16.5 21.7001H1.5ZM13.55 3.9001L14.625 4.9501L7.5 12.0501V14.2001H9.625L16.775 7.0501L17.825 8.1001L10.7 15.2501C10.5667 15.3834 10.4042 15.4918 10.2125 15.5751C10.0208 15.6584 9.825 15.7001 9.625 15.7001H6.75C6.53333 15.7001 6.35417 15.6293 6.2125 15.4876C6.07083 15.3459 6 15.1668 6 14.9501V12.0751C6 11.8751 6.04167 11.6793 6.125 11.4876C6.20833 11.2959 6.31667 11.1334 6.45 11.0001L13.55 3.9001ZM17.825 8.1001L13.55 3.9001L16.05 1.4001C16.3333 1.11676 16.6875 0.975098 17.1125 0.975098C17.5375 0.975098 17.8917 1.1251 18.175 1.4251L20.275 3.5501C20.5583 3.8501 20.7 4.20426 20.7 4.6126C20.7 5.02093 20.55 5.36676 20.25 5.6501L17.825 8.1001Z" fill="white"/>
</svg>
