<svg width="24" height="24" viewBox="0 0 24 24" fill="none" xmlns="http://www.w3.org/2000/svg">
<path d="M11 20C10.7166 20 10.4791 19.9042 10.2875 19.7125C10.0958 19.5208 9.99997 19.2833 9.99997 19V13L4.02497 5.375C3.79163 5.09167 3.7583 4.79167 3.92497 4.475C4.09163 4.15833 4.34997 4 4.69997 4H19.3C19.65 4 19.9083 4.15833 20.075 4.475C20.2416 4.79167 20.2083 5.09167 19.975 5.375L14 13V19C14 19.2833 13.9041 19.5208 13.7125 19.7125C13.5208 19.9042 13.2833 20 13 20H11ZM12 13.1L18 5.5H5.99997L12 13.1Z" fill="#252733"/>
</svg>
