<svg width="29" height="29" viewBox="0 0 29 29" fill="none" xmlns="http://www.w3.org/2000/svg">
<path d="M26.3484 12.1334H25.3751V12.0833H14.5001V16.9166H21.329C20.3327 19.7302 17.6556 21.75 14.5001 21.75C10.4963 21.75 7.25008 18.5038 7.25008 14.5C7.25008 10.4961 10.4963 7.24996 14.5001 7.24996C16.3482 7.24996 18.0296 7.94717 19.3099 9.08602L22.7276 5.66825C20.5695 3.65698 17.6828 2.41663 14.5001 2.41663C7.82706 2.41663 2.41675 7.82694 2.41675 14.5C2.41675 21.173 7.82706 26.5833 14.5001 26.5833C21.1731 26.5833 26.5834 21.173 26.5834 14.5C26.5834 13.6898 26.5 12.8989 26.3484 12.1334Z" fill="#FFC107"/>
<path d="M3.80981 8.87577L7.77979 11.7873C8.854 9.12771 11.4555 7.24996 14.4999 7.24996C16.3481 7.24996 18.0295 7.94717 19.3097 9.08602L22.7275 5.66825C20.5694 3.65698 17.6827 2.41663 14.4999 2.41663C9.85873 2.41663 5.83377 5.0369 3.80981 8.87577Z" fill="#FF3D00"/>
<path d="M14.5001 26.5834C17.6212 26.5834 20.4572 25.3889 22.6014 23.4465L18.8616 20.2819C17.6484 21.2009 16.1404 21.75 14.5001 21.75C11.3572 21.75 8.68863 19.746 7.68329 16.9493L3.74292 19.9853C5.74271 23.8985 9.80392 26.5834 14.5001 26.5834Z" fill="#4CAF50"/>
<path d="M26.3483 12.1335H25.375V12.0834H14.5V16.9167H21.3289C20.8504 18.2682 19.981 19.4337 18.8597 20.2825C18.8603 20.2819 18.8609 20.2819 18.8615 20.2813L22.6013 23.4459C22.3366 23.6864 26.5833 20.5417 26.5833 14.5C26.5833 13.6899 26.5 12.899 26.3483 12.1335Z" fill="#1976D2"/>
</svg>
