<svg width="18" height="18" viewBox="0 0 18 18" fill="none" xmlns="http://www.w3.org/2000/svg">
<g opacity="0.8">
<path d="M6.75 10.0181V3.375C6.75 2.44125 5.99625 1.6875 5.0625 1.6875C4.12875 1.6875 3.375 2.44125 3.375 3.375V10.0181C2.36813 10.6031 1.6875 11.6887 1.6875 12.9375C1.6875 14.7994 3.20063 16.3125 5.0625 16.3125C6.92437 16.3125 8.4375 14.7994 8.4375 12.9375C8.4375 11.6887 7.75687 10.6031 6.75 10.0181Z" stroke="#E9302D" stroke-miterlimit="10" stroke-linecap="round" stroke-linejoin="round"/>
<path d="M5.0625 14.625C5.99448 14.625 6.75 13.8695 6.75 12.9375C6.75 12.0055 5.99448 11.25 5.0625 11.25C4.13052 11.25 3.375 12.0055 3.375 12.9375C3.375 13.8695 4.13052 14.625 5.0625 14.625Z" stroke="#E9302D" stroke-miterlimit="10" stroke-linecap="round" stroke-linejoin="round"/>
<path d="M5.0625 3.375V11.25" stroke="#E9302D" stroke-miterlimit="10" stroke-linecap="round" stroke-linejoin="round"/>
<path d="M11.25 9.5625C12.4926 9.5625 13.5 8.55514 13.5 7.3125C13.5 6.06986 12.4926 5.0625 11.25 5.0625C10.0074 5.0625 9 6.06986 9 7.3125C9 8.55514 10.0074 9.5625 11.25 9.5625Z" stroke="#E9302D" stroke-miterlimit="10" stroke-linecap="round" stroke-linejoin="round"/>
<path d="M11.25 2.25V3.375" stroke="#E9302D" stroke-miterlimit="10" stroke-linecap="round" stroke-linejoin="round"/>
<path d="M11.25 12.375V11.25" stroke="#E9302D" stroke-miterlimit="10" stroke-linecap="round" stroke-linejoin="round"/>
<path d="M14.8275 10.8898L14.0344 10.0967" stroke="#E9302D" stroke-miterlimit="10" stroke-linecap="round" stroke-linejoin="round"/>
<path d="M16.3125 7.3125H15.1875" stroke="#E9302D" stroke-miterlimit="10" stroke-linecap="round" stroke-linejoin="round"/>
<path d="M14.8275 3.73535L14.0344 4.52848" stroke="#E9302D" stroke-miterlimit="10" stroke-linecap="round" stroke-linejoin="round"/>
</g>
</svg>
