<svg width="24" height="24" viewBox="0 0 24 24" fill="none" xmlns="http://www.w3.org/2000/svg">
<path d="M22.497 3L22.5 3.003V20.997L22.497 21H1.503L1.5 20.997V3.003L1.503 3H22.497ZM22.5 1.5H1.5C0.675 1.5 0 2.175 0 3V21C0 21.825 0.675 22.5 1.5 22.5H22.5C23.325 22.5 24 21.825 24 21V3C24 2.175 23.325 1.5 22.5 1.5Z" fill="#4C9CFF"/>
<path d="M19.5 6.7515C19.4998 7.34844 19.2625 7.92084 18.8402 8.3428C18.418 8.76476 17.8454 9.0017 17.2485 9.0015C16.6516 9.0013 16.0792 8.76398 15.6572 8.34174C15.2352 7.9195 14.9983 7.34694 14.9985 6.75C14.9987 6.15306 15.236 5.58066 15.6583 5.1587C16.0805 4.73674 16.6531 4.4998 17.25 4.5C17.8469 4.5002 18.4193 4.73752 18.8413 5.15976C19.2633 5.582 19.5002 6.15456 19.5 6.7515ZM21 19.5015H3V16.5015L8.25 7.5015L14.25 15.0015H15.75L21 10.5015V19.5015Z" fill="#4C9CFF"/>
</svg>
