<svg width="26" height="24" viewBox="0 0 26 24" fill="none" xmlns="http://www.w3.org/2000/svg">
<path d="M5.96417 21C5.41167 21 4.93853 20.8043 4.54475 20.413C4.15163 20.021 3.95508 19.55 3.95508 19V5C3.95508 4.45 4.15163 3.979 4.54475 3.587C4.93853 3.19567 5.41167 3 5.96417 3H12.996V5H5.96417V19H20.0278V12H22.0369V19C22.0369 19.55 21.8404 20.021 21.4472 20.413C21.0535 20.8043 20.5803 21 20.0278 21H5.96417ZM10.6855 15.7L9.27918 14.3L18.6215 5H15.0051V3H22.0369V10H20.0278V6.4L10.6855 15.7Z" fill="#4C9CFF"/>
</svg>
