<svg width="24" height="24" viewBox="0 0 24 24" fill="none" xmlns="http://www.w3.org/2000/svg">
<path d="M11.9996 2.39997C11.7788 2.39997 11.5996 2.22076 11.5996 1.99998V0.399987C11.5996 0.179204 11.7788 0 11.9996 0C12.2204 0 12.3996 0.179204 12.3996 0.399987V1.99998C12.3996 2.22076 12.2208 2.39997 11.9996 2.39997Z" fill="#252733"/>
<path d="M8.19969 3.41769C8.05649 3.41769 7.92449 3.34171 7.85291 3.21768L7.05294 1.83251C6.94133 1.6421 7.00536 1.3969 7.19572 1.28534C7.38608 1.17377 7.63133 1.23776 7.74289 1.42812C7.74369 1.42971 7.74449 1.43131 7.74571 1.43253L8.54568 2.81769C8.65607 3.00889 8.59049 3.25368 8.39929 3.36407C8.33891 3.39932 8.2701 3.41769 8.19969 3.41769Z" fill="#252733"/>
<path d="M5.41742 6.19914C5.34701 6.19914 5.2782 6.18072 5.2174 6.14556L3.83224 5.34559C3.64024 5.23637 3.57302 4.99239 3.68224 4.80001C3.79146 4.60801 4.03544 4.54079 4.22782 4.65001C4.22941 4.65081 4.231 4.6516 4.23222 4.65282L5.61739 5.4528C5.80859 5.56319 5.87417 5.80797 5.76378 5.99917C5.69262 6.12278 5.56062 6.19914 5.41742 6.19914Z" fill="#252733"/>
<path d="M4.39988 9.99919H2.79989C2.57911 9.99919 2.3999 9.81999 2.3999 9.5992C2.3999 9.37842 2.57911 9.19922 2.79989 9.19922H4.39988C4.62067 9.19922 4.79987 9.37842 4.79987 9.5992C4.79987 9.81999 4.62109 9.99919 4.39988 9.99919Z" fill="#252733"/>
<path d="M4.03329 14.6014C3.8125 14.6014 3.6333 14.4221 3.6333 14.2014C3.6333 14.0586 3.70971 13.9266 3.83332 13.855L5.21848 13.055C5.40889 12.9434 5.65409 13.007 5.76566 13.1978C5.87727 13.3882 5.81366 13.6334 5.62287 13.7449C5.62128 13.7457 5.61969 13.7465 5.61809 13.7478L4.23293 14.5477C4.17246 14.583 4.10369 14.6014 4.03329 14.6014Z" fill="#252733"/>
<path d="M19.9667 14.6015C19.8963 14.6015 19.8275 14.5831 19.7667 14.5479L18.3815 13.7479C18.1895 13.6387 18.1224 13.3947 18.2315 13.2024C18.3408 13.0104 18.5847 12.9431 18.7771 13.0524C18.7787 13.0531 18.7803 13.0539 18.7819 13.0552L20.1671 13.8551C20.3583 13.9655 20.4238 14.2103 20.3135 14.4015C20.2419 14.5251 20.1099 14.6015 19.9667 14.6015Z" fill="#252733"/>
<path d="M21.1997 9.99919H19.5997C19.3789 9.99919 19.1997 9.81999 19.1997 9.5992C19.1997 9.37842 19.3789 9.19922 19.5997 9.19922H21.1997C21.4205 9.19922 21.5997 9.37842 21.5997 9.5992C21.5997 9.81999 21.4209 9.99919 21.1997 9.99919Z" fill="#252733"/>
<path d="M18.5821 6.19891C18.3613 6.19891 18.1821 6.01971 18.1821 5.79893C18.1821 5.65615 18.2585 5.52414 18.3821 5.45252L19.7673 4.65255C19.9577 4.54094 20.2029 4.60497 20.3145 4.79533C20.4261 4.98573 20.3621 5.23094 20.1717 5.3425C20.1701 5.3433 20.1685 5.3441 20.1673 5.34532L18.7821 6.14529C18.7213 6.18054 18.6525 6.19891 18.5821 6.19891Z" fill="#252733"/>
<path d="M15.8 3.41799C15.5792 3.41757 15.4 3.23841 15.4004 3.01758C15.4004 2.9476 15.4188 2.87878 15.454 2.81799L16.2539 1.43282C16.3632 1.24082 16.6071 1.1736 16.7995 1.28282C16.9915 1.39204 17.0587 1.63603 16.9495 1.8284C16.9487 1.83 16.9479 1.83159 16.9467 1.83318L16.1467 3.21835C16.0756 3.34201 15.9432 3.41799 15.8 3.41799Z" fill="#252733"/>
<path d="M13.9998 8C13.1162 8 12.3998 8.71639 12.3998 9.59999V10.4H11.5998V9.59999C11.5998 8.71639 10.8834 8 9.99985 8C9.11625 8 8.3999 8.71639 8.3999 9.59999C8.3999 10.4836 9.1163 11.2 9.9999 11.2H10.7999V15.5999C10.7999 15.8207 10.9791 15.9999 11.1999 15.9999C11.4206 15.9999 11.5998 15.8207 11.5998 15.5999V11.2H12.3998V15.5999C12.3998 15.8207 12.579 15.9999 12.7998 15.9999C13.0206 15.9999 13.1998 15.8207 13.1998 15.5999V11.2H13.9998C14.8834 11.2 15.5998 10.4836 15.5998 9.59999C15.5998 8.71639 14.8834 8 13.9998 8ZM9.19988 9.59999C9.19988 9.15801 9.55786 8.80002 9.99985 8.80002C10.4418 8.80002 10.7998 9.15801 10.7998 9.59999V10.4H9.99985C9.55828 10.4 9.19988 10.042 9.19988 9.59999ZM13.9998 10.4H13.1998V9.59999C13.1998 9.15801 13.5578 8.80002 13.9998 8.80002C14.4418 8.80002 14.7998 9.15801 14.7998 9.59999C14.7998 10.042 14.4418 10.4 13.9998 10.4Z" fill="#252733"/>
<path d="M12.7069 3.20673C9.17655 3.03713 6.177 5.76148 6.0074 9.29226C5.91018 11.3139 6.77499 13.2622 8.33935 14.5462C8.62136 14.767 8.78893 15.103 8.79615 15.461V16.3989C8.79817 16.9057 9.11856 17.3565 9.59613 17.5253V17.9989C9.59735 18.2949 9.70853 18.5801 9.90813 18.7988C9.49216 19.2512 9.49216 19.9464 9.90813 20.3988C9.46333 20.8864 9.49811 21.642 9.98571 22.0868C10.2073 22.2888 10.4965 22.4 10.7961 22.3988C11.0113 22.4044 11.1905 22.2344 11.1961 22.0192C11.1981 21.9352 11.1733 21.8528 11.1249 21.784C11.1121 21.7596 11.0973 21.7364 11.0801 21.7148C11.0472 21.6848 11.0097 21.66 10.9689 21.642C10.9573 21.636 10.9457 21.6312 10.9337 21.6264C10.8933 21.6116 10.8509 21.6032 10.8077 21.6012C10.8037 21.6012 10.8001 21.5988 10.7961 21.5988C10.5753 21.5988 10.3961 21.4196 10.3961 21.1988C10.3961 20.978 10.5753 20.7988 10.7961 20.7988H12.3961C12.6169 20.7988 12.7961 20.6196 12.7961 20.3988C12.7961 20.1781 12.6169 19.9989 12.3961 19.9989H10.7961C10.5753 19.9989 10.3961 19.8197 10.3961 19.5989C10.3961 19.3781 10.5753 19.1989 10.7961 19.1989H12.3961C12.6169 19.1989 12.7961 19.0197 12.7961 18.7989C12.7961 18.5781 12.6169 18.3989 12.3961 18.3989H10.7961C10.5753 18.3989 10.3961 18.2197 10.3961 17.9989V17.5989H12.3961C12.6169 17.5989 12.7961 17.4197 12.7961 17.1989C12.7961 16.9782 12.6169 16.799 12.3961 16.799H9.99611C9.77533 16.799 9.59613 16.6198 9.59613 16.399V15.461C9.5897 14.863 9.31413 14.2994 8.84612 13.927C6.45694 11.9635 6.11175 8.43426 8.07535 6.04507C9.19853 4.67828 10.9017 3.9227 12.6689 4.00707C15.6245 4.18309 17.9456 6.60504 17.996 9.56503C18.0104 11.2674 17.2449 12.883 15.9181 13.9502C15.4537 14.3329 15.1881 14.9058 15.1961 15.5074V16.3989C15.1961 16.6197 15.0169 16.7989 14.7961 16.7989H13.5961C13.3753 16.7989 13.1961 16.9781 13.1961 17.1989C13.1961 17.4197 13.3753 17.5989 13.5961 17.5989H14.3961V17.9989C14.3961 18.2197 14.2169 18.3989 13.9961 18.3989H13.5961C13.3753 18.3989 13.1961 18.5781 13.1961 18.7988C13.1961 19.0196 13.3753 19.1988 13.5961 19.1988H13.9961C14.2169 19.1988 14.3961 19.378 14.3961 19.5988C14.3961 19.8196 14.2169 19.9988 13.9961 19.9988H13.5961C13.3753 19.9988 13.1961 20.178 13.1961 20.3988C13.1961 20.6196 13.3753 20.7988 13.5961 20.7988H13.9961C14.2169 20.7988 14.3961 20.978 14.3961 21.1988C14.3961 21.4196 14.2169 21.5988 13.9961 21.5988H11.9961C11.7753 21.5988 11.5961 21.778 11.5961 21.9987C11.5961 22.2195 11.7753 22.3987 11.9961 22.3987H13.5277C13.3069 23.0235 12.6213 23.3511 11.9965 23.1303C11.8053 23.0627 11.6341 22.9475 11.4993 22.7959C11.3525 22.6307 11.0997 22.6163 10.9345 22.7631C10.7693 22.9099 10.7549 23.1627 10.9017 23.3279C11.6333 24.1523 12.8945 24.2275 13.7189 23.4959C14.0593 23.1939 14.2865 22.7843 14.362 22.3355C14.9884 22.1399 15.3376 21.4731 15.1416 20.8467C15.0896 20.6803 15.0016 20.5275 14.884 20.3987C15.3001 19.9463 15.3001 19.2511 14.884 18.7987C15.0836 18.5799 15.1948 18.2947 15.196 17.9987V17.5253C15.6736 17.3565 15.994 16.9057 15.996 16.399V15.5074C15.9908 15.1482 16.1464 14.805 16.4204 14.5726C17.9376 13.353 18.8132 11.5059 18.796 9.55908C18.7384 6.1759 16.0849 3.40749 12.7069 3.20673Z" fill="#252733"/>
</svg>
