<svg width="24" height="24" viewBox="0 0 24 24" fill="none" xmlns="http://www.w3.org/2000/svg">
<rect x="0.5" y="0.5" width="23" height="23" rx="3.5" fill="white"/>
<path d="M16.9 17.6167L12.8833 13.6001C12.55 13.889 12.1611 14.114 11.7167 14.2751C11.2722 14.4362 10.8 14.5167 10.3 14.5167C9.1 14.5167 8.08333 14.1001 7.25 13.2667C6.41667 12.4334 6 11.4278 6 10.2501C6 9.07229 6.41667 8.06673 7.25 7.2334C8.08333 6.40007 9.09444 5.9834 10.2833 5.9834C11.4611 5.9834 12.4639 6.40007 13.2917 7.2334C14.1194 8.06673 14.5333 9.07229 14.5333 10.2501C14.5333 10.7278 14.4556 11.189 14.3 11.6334C14.1444 12.0778 13.9111 12.4945 13.6 12.8834L17.65 16.9001C17.75 16.989 17.8 17.1028 17.8 17.2417C17.8 17.3806 17.7444 17.5056 17.6333 17.6167C17.5333 17.7167 17.4111 17.7667 17.2667 17.7667C17.1222 17.7667 17 17.7167 16.9 17.6167ZM10.2833 13.5167C11.1833 13.5167 11.95 13.1973 12.5833 12.5584C13.2167 11.9195 13.5333 11.1501 13.5333 10.2501C13.5333 9.35007 13.2167 8.58062 12.5833 7.94173C11.95 7.30284 11.1833 6.9834 10.2833 6.9834C9.37222 6.9834 8.59722 7.30284 7.95833 7.94173C7.31944 8.58062 7 9.35007 7 10.2501C7 11.1501 7.31944 11.9195 7.95833 12.5584C8.59722 13.1973 9.37222 13.5167 10.2833 13.5167Z" fill="#4C9CFF"/>
<rect x="0.5" y="0.5" width="23" height="23" rx="3.5" stroke="#4C9CFF"/>
</svg>
