<svg width="18" height="18" viewBox="0 0 18 18" fill="none" xmlns="http://www.w3.org/2000/svg">
<g opacity="0.8">
<path d="M16.5938 5.13676C16.4642 5.06281 16.3107 5.04331 16.1668 5.08255C16.0229 5.12178 15.9005 5.21655 15.8265 5.34601L15.1875 6.46032V5.43207C15.1885 5.06264 15.1163 4.69668 14.9749 4.35536C14.8336 4.01404 14.6259 3.70416 14.364 3.44364L12.8689 1.94851C12.6084 1.68658 12.2985 1.47892 11.9572 1.33757C11.6158 1.19622 11.2499 1.12397 10.8804 1.12501H5.625C4.87935 1.1259 4.1645 1.42251 3.63725 1.94976C3.11 2.47701 2.81339 3.19186 2.8125 3.93751V14.0625C2.81339 14.8082 3.11 15.523 3.63725 16.0503C4.1645 16.5775 4.87935 16.8741 5.625 16.875H12.375C13.1206 16.8741 13.8355 16.5775 14.3628 16.0503C14.89 15.523 15.1866 14.8082 15.1875 14.0625V8.7272L16.8007 5.90626C16.8378 5.84218 16.8619 5.7714 16.8715 5.69801C16.8812 5.62461 16.8762 5.55003 16.857 5.47854C16.8378 5.40705 16.8046 5.34006 16.7594 5.28141C16.7143 5.22276 16.658 5.1736 16.5938 5.13676ZM13.5709 4.23676C13.6495 4.31739 13.7199 4.40556 13.7812 4.50001H12.375C12.2258 4.50001 12.0827 4.44075 11.9773 4.33526C11.8718 4.22977 11.8125 4.0867 11.8125 3.93751V2.53126C11.9062 2.59322 11.9937 2.66425 12.0735 2.74332L13.5709 4.23676ZM14.0625 14.0625C14.0625 14.5101 13.8847 14.9393 13.5682 15.2558C13.2518 15.5722 12.8226 15.75 12.375 15.75H5.625C5.17745 15.75 4.74822 15.5722 4.43176 15.2558C4.11529 14.9393 3.9375 14.5101 3.9375 14.0625V3.93751C3.9375 3.48996 4.11529 3.06074 4.43176 2.74427C4.74822 2.4278 5.17745 2.25001 5.625 2.25001H10.6875V3.93751C10.6875 4.38506 10.8653 4.81429 11.1818 5.13075C11.4982 5.44722 11.9274 5.62501 12.375 5.62501H14.0625V8.42907L11.3243 13.2188C11.2503 13.3483 11.2308 13.5018 11.27 13.6457C11.3093 13.7896 11.404 13.912 11.5335 13.986C11.6181 14.0357 11.7144 14.0621 11.8125 14.0625C11.9115 14.0628 12.0089 14.037 12.0947 13.9876C12.1805 13.9382 12.2518 13.867 12.3013 13.7813L14.0625 10.6959V14.0625Z" fill="#1F88C9"/>
<path d="M5.625 5.625H9C9.14918 5.625 9.29226 5.56574 9.39775 5.46025C9.50324 5.35476 9.5625 5.21168 9.5625 5.0625C9.5625 4.91332 9.50324 4.77024 9.39775 4.66475C9.29226 4.55926 9.14918 4.5 9 4.5H5.625C5.47582 4.5 5.33274 4.55926 5.22725 4.66475C5.12176 4.77024 5.0625 4.91332 5.0625 5.0625C5.0625 5.21168 5.12176 5.35476 5.22725 5.46025C5.33274 5.56574 5.47582 5.625 5.625 5.625Z" fill="#1F88C9"/>
<path d="M5.625 7.875H11.25C11.3992 7.875 11.5423 7.81574 11.6477 7.71025C11.7532 7.60476 11.8125 7.46168 11.8125 7.3125C11.8125 7.16332 11.7532 7.02024 11.6477 6.91475C11.5423 6.80926 11.3992 6.75 11.25 6.75H5.625C5.47582 6.75 5.33274 6.80926 5.22725 6.91475C5.12176 7.02024 5.0625 7.16332 5.0625 7.3125C5.0625 7.46168 5.12176 7.60476 5.22725 7.71025C5.33274 7.81574 5.47582 7.875 5.625 7.875Z" fill="#1F88C9"/>
<path d="M11.8125 9.5625C11.8125 9.41332 11.7532 9.27024 11.6477 9.16475C11.5423 9.05926 11.3992 9 11.25 9H5.625C5.47582 9 5.33274 9.05926 5.22725 9.16475C5.12176 9.27024 5.0625 9.41332 5.0625 9.5625C5.0625 9.71168 5.12176 9.85476 5.22725 9.96025C5.33274 10.0657 5.47582 10.125 5.625 10.125H11.25C11.3992 10.125 11.5423 10.0657 11.6477 9.96025C11.7532 9.85476 11.8125 9.71168 11.8125 9.5625Z" fill="#1F88C9"/>
<path d="M9.16877 12.5385C8.98145 12.7257 8.74894 12.8614 8.49377 12.9323C8.43752 12.894 8.35258 12.8147 8.29127 12.7596C8.13249 12.5763 7.93483 12.4306 7.71269 12.3333C7.49054 12.236 7.24949 12.1895 7.00708 12.1971C6.73357 12.2589 6.47684 12.3796 6.25483 12.5509C6.03283 12.7222 5.8509 12.9399 5.72177 13.1888C5.68077 13.2502 5.65228 13.3192 5.63792 13.3916C5.62357 13.4641 5.62362 13.5387 5.63809 13.6111C5.65256 13.6836 5.68116 13.7525 5.72225 13.8139C5.76334 13.8753 5.81612 13.928 5.87758 13.969C5.93904 14.01 6.00797 14.0385 6.08044 14.0528C6.15291 14.0672 6.2275 14.0671 6.29994 14.0526C6.44626 14.0234 6.57497 13.9373 6.65777 13.8132C6.97333 13.3401 7.1432 13.3137 7.14489 13.3137C7.2152 13.3018 7.43177 13.4998 7.53527 13.5949C7.76464 13.8611 8.08777 14.0287 8.43752 14.0629C9.01471 14.0067 9.55374 13.7492 9.96021 13.3356C10.0564 13.2288 10.108 13.0892 10.1045 12.9455C10.101 12.8018 10.0426 12.6648 9.94136 12.5628C9.84008 12.4608 9.70358 12.4015 9.5599 12.397C9.41622 12.3924 9.27627 12.4431 9.16877 12.5385Z" fill="#1F88C9"/>
</g>
</svg>
