<svg width="30" height="30" viewBox="0 0 30 30" fill="none" xmlns="http://www.w3.org/2000/svg">
<path d="M21.2482 23.1395L21.0836 22.9749L20.9077 23.1274C19.912 23.9903 18.7486 24.6641 17.4148 25.1476C16.0831 25.6304 14.6665 25.8724 13.1633 25.8724C9.55474 25.8724 6.50649 24.6223 4.00331 22.1191C1.49914 19.615 0.25 16.6003 0.25 13.0612C0.25 9.52213 1.49914 6.50748 4.00331 4.00331C6.50698 1.49963 9.53844 0.25 13.1122 0.25C16.6513 0.25 19.6571 1.49909 22.1441 4.00272C24.6314 6.50676 25.8724 9.5216 25.8724 13.0612C25.8724 14.4961 25.639 15.8797 25.1722 17.2133C24.7059 18.5457 24.0059 19.7966 23.0701 20.9663L22.9291 21.1425L23.09 21.3007L29.3655 27.4741L29.3653 27.4744L29.3747 27.4828C29.6252 27.7054 29.75 27.985 29.75 28.3418C29.75 28.6918 29.613 29.0131 29.313 29.313C29.0549 29.5711 28.7448 29.699 28.3673 29.699C27.9899 29.699 27.6798 29.5711 27.4217 29.313L21.2482 23.1395ZM13.1122 23.3112C15.934 23.3112 18.3449 22.3067 20.3306 20.3036C22.3158 18.3009 23.3112 15.8822 23.3112 13.0612C23.3112 10.2402 22.3158 7.82152 20.3306 5.81889C18.3449 3.81573 15.934 2.81122 13.1122 2.81122C10.2575 2.81122 7.82123 3.81501 5.81812 5.81812C3.81566 7.82058 2.81122 10.2395 2.81122 13.0612C2.81122 15.8829 3.81566 18.3019 5.81812 20.3043C7.82123 22.3074 10.2575 23.3112 13.1122 23.3112Z" fill="#333333" stroke="white" stroke-width="0.5"/>
</svg>
