<svg width="3" height="15" viewBox="0 0 3 15" fill="none" xmlns="http://www.w3.org/2000/svg">
<path d="M1.5 14.55C1.08333 14.55 0.729333 14.404 0.438 14.112C0.146 13.8207 0 13.4667 0 13.05C0 12.6333 0.146 12.279 0.438 11.987C0.729333 11.6957 1.08333 11.55 1.5 11.55C1.91667 11.55 2.27067 11.6957 2.562 11.987C2.854 12.279 3 12.6333 3 13.05C3 13.4667 2.854 13.8207 2.562 14.112C2.27067 14.404 1.91667 14.55 1.5 14.55ZM1.5 8.775C1.08333 8.775 0.729333 8.629 0.438 8.337C0.146 8.04567 0 7.69167 0 7.275C0 6.85833 0.146 6.50433 0.438 6.213C0.729333 5.921 1.08333 5.775 1.5 5.775C1.91667 5.775 2.27067 5.921 2.562 6.213C2.854 6.50433 3 6.85833 3 7.275C3 7.69167 2.854 8.04567 2.562 8.337C2.27067 8.629 1.91667 8.775 1.5 8.775ZM1.5 3C1.08333 3 0.729333 2.854 0.438 2.562C0.146 2.27067 0 1.91667 0 1.5C0 1.08333 0.146 0.729 0.438 0.437C0.729333 0.145667 1.08333 0 1.5 0C1.91667 0 2.27067 0.145667 2.562 0.437C2.854 0.729 3 1.08333 3 1.5C3 1.91667 2.854 2.27067 2.562 2.562C2.27067 2.854 1.91667 3 1.5 3Z" fill="#203164"/>
</svg>
