<svg width="18" height="18" viewBox="0 0 18 18" fill="none" xmlns="http://www.w3.org/2000/svg">
<g opacity="0.8">
<path d="M9 6.75C8.33077 6.73922 7.67722 6.95252 7.14318 7.356C6.60916 7.7595 6.22541 8.32995 6.05296 8.9766C5.88051 9.62332 5.92926 10.3091 6.19147 10.9249C6.45368 11.5407 6.91428 12.0511 7.5 12.375M9 2.25V3.75M4.95 13.8L3.9 14.85M3 9.75H1.5M4.95 5.7L3.9 4.65M15 10.9013V3C15 2.17157 14.3284 1.5 13.5 1.5C12.6716 1.5 12 2.17157 12 3V10.9013C11.1033 11.42 10.5 12.3896 10.5 13.5C10.5 15.1568 11.8432 16.5 13.5 16.5C15.1568 16.5 16.5 15.1568 16.5 13.5C16.5 12.3896 15.8967 11.42 15 10.9013Z" stroke="#B57A1A" stroke-linecap="round" stroke-linejoin="round"/>
</g>
</svg>
